<?xml version="1.0" standalone="no"?>
<!DOCTYPE svg PUBLIC "-//W3C//DTD SVG 1.1//EN" "http://www.w3.org/Graphics/SVG/1.1/DTD/svg11.dtd" >
<svg xmlns="http://www.w3.org/2000/svg">
<metadata>
This is a custom SVG font generated by IcoMoon.
<iconset grid="16"></iconset>
</metadata>
<defs>
<font id="icomoon" horiz-adv-x="512" >
<font-face units-per-em="512" ascent="480" descent="-32" />
<missing-glyph horiz-adv-x="512" />
<glyph class="hidden" unicode="&#xf000;" d="M0,480L 512 -32L0 -32 z" horiz-adv-x="0" />
<glyph unicode="&#xf02b;" d="M 127.867,351.867q0,15.127 -10.703,25.83t-25.83,10.703t-25.83-10.703t-10.703-25.83t 10.703-25.83t 25.83-10.703t 25.83,10.703t 10.703,25.83zM 432.405,187.467q0-15.127 -10.56-25.688l-140.139-140.425q-11.132-10.56 -25.973-10.56q-15.127,0 -25.688,10.56l-204.073,204.359q-10.845,10.56 -18.409,28.827t-7.564,33.394l0,118.733 q0,14.841 10.845,25.688t 25.688,10.845l 118.733,0 q 15.127,0 33.394-7.564t 29.112-18.409 l 204.073-203.788q 10.56-11.132 10.56-25.973zM 542.006,187.467q0-15.127 -10.56-25.688l-140.139-140.425q-11.132-10.56 -25.973-10.56q-10.275,0 -16.84,3.995t-15.127,12.843l 134.146,134.146q 10.56,10.56 10.56,25.688q0,14.841 -10.56,25.973l-204.073,203.788q-10.845,10.845 -29.112,18.409t-33.394,7.564l 63.934,0 q 15.127,0 33.394-7.564t 29.112-18.409l 204.073-203.788q 10.56-11.132 10.56-25.973z" horiz-adv-x="548"  />
<glyph unicode="&#xf02c;" d="M 211.929,30.572l-186.286,186q-10.572,10.572 -10.572,25.857t 10.572,25.857l 186.286,186q 10.572,10.572 25.857,10.572t 25.857-10.572l 21.428-21.428q 10.572-10.572 10.572-25.857t-10.572-25.857l-138.857-138.857l 138.857-138.571q 10.572-10.857 10.572-26t-10.572-25.715l-21.428-21.428q-10.572-10.572 -25.857-10.572t-25.857,10.572z" horiz-adv-x="329"  />
<glyph unicode="&#xf053;" d="M 313.928,242.286q0-14.857 -10.572-26l-186.286-186q-10.572-10.572 -25.715-10.572t-25.715,10.572l-21.715,21.428q-10.572,11.143 -10.572,26q0,15.143 10.572,25.715l 138.857,138.857l-138.857,138.571q-10.572,11.143 -10.572,26q0,15.143 10.572,25.715l 21.715,21.428q 10.286,10.857 25.715,10.857t 25.715-10.857l 186.286-186q 10.572-10.572 10.572-25.715z" horiz-adv-x="329"  />
<glyph unicode="&#xf054;" d="M 182.857,406.857l 146.286,0 l0,36.572 l-146.286,0 l0-36.572 zM 512,224l0-137.143 q0-18.857 -13.428-32.285t-32.285-13.428l-420.572,0 q-18.857,0 -32.285,13.428t-13.428,32.285l0,137.143 l 192,0 l0-45.715 q0-7.428 5.428-12.857t 12.857-5.428l 91.428,0 q 7.428,0 12.857,5.428t 5.428,12.857l0,45.715 l 192,0 zM 292.572,224l0-36.572 l-73.143,0 l0,36.572 l 73.143,0 zM 512,361.143l0-109.715 l-512,0 l0,109.715 q0,18.857 13.428,32.285t 32.285,13.428l 100.572,0 l0,45.715 q0,11.428 8,19.428 t 19.428,8l 164.571,0 q 11.428,0 19.428-8t 8-19.428l0-45.715 l 100.572,0 q 18.857,0 32.285-13.428t 13.428-32.285z"  />
<glyph unicode="&#xf060;" d="M 438.428,224l0-36.572 q0-15.143 -9.286-25.857t-24.143-10.714l-201.143,0 l 83.715-84q 10.857-10.286 10.857-25.715t-10.857-25.715l-21.428-21.715q-10.572-10.572 -25.715-10.572q-14.857,0 -26,10.572l-186,186.286q-10.572,10.572 -10.572,25.715q0,14.857 10.572,26l 186,185.714q 10.857,10.857 26,10.857q 14.857,0 25.715-10.857l 21.428-21.143q 10.857-10.857 10.857-26t-10.857-26l-83.715-83.715l 201.143,0 q 14.857,0 24.143-10.714 t 9.286-25.857z" horiz-adv-x="438"  />
<glyph unicode="&#xf061;" d="M 423.214,180q 13.143-7.428 17-22.143t-3.571-27.857l-18.285-31.428q-7.428-13.143 -22.143-17t-27.857,3.571l-76,43.715l0-87.715 q0-14.857 -10.857-25.715t-25.715-10.857l-36.572,0 q-14.857,0 -25.715,10.857t-10.857,25.715l0,87.715 l-76-43.715q-13.143-7.428 -27.857-3.571t-22.143,17l-18.285,31.428q-7.428,13.143 -3.571,27.857t 17,22.143l 76,44l-76,44 q-13.143,7.428 -17,22.143t 3.571,27.857l 18.285,31.428q 7.428,13.143 22.143,17t 27.857-3.571l 76-43.715l0,87.715 q0,14.857 10.857,25.715t 25.715,10.857l 36.572,0 q 14.857,0 25.715-10.857t 10.857-25.715l0-87.715 l 76,43.715q 13.143,7.428 27.857,3.571t 22.143-17l 18.285-31.428q 7.428-13.143 3.571-27.857t-17-22.143l-76-44z" horiz-adv-x="475"  />
<glyph unicode="&#xf069;" d="M 36.358,4.572l 82.285,0 l0,82.285 l-82.285,0 l0-82.285 zM 136.929,4.572l 91.428,0 l0,82.285 l-91.428,0 l0-82.285 zM 36.358,105.143l 82.285,0 l0,91.428 l-82.285,0 l0-91.428 zM 136.929,105.143l 91.428,0 l0,91.428 l-91.428,0 l0-91.428 zM 36.358,214.857l 82.285,0 l0,82.285 l-82.285,0 l0-82.285 zM 246.643,4.572l 91.428,0 l0,82.285 l-91.428,0 l0-82.285 zM 136.929,214.857l 91.428,0 l0,82.285 l-91.428,0 l0-82.285 zM 356.358,4.572l 82.285,0 l0,82.285 l-82.285,0 l0-82.285 zM 246.643,105.143l 91.428,0 l0,91.428 l-91.428,0 l0-91.428 z M 146.071,352l0,82.285 q0,3.715 -2.715,6.428t-6.428,2.715l-18.285,0 q-3.715,0 -6.428-2.715t-2.715-6.428l0-82.285 q0-3.715 2.715-6.428t 6.428-2.715l 18.285,0 q 3.715,0 6.428,2.715t 2.715,6.428zM 356.358,105.143l 82.285,0 l0,91.428 l-82.285,0 l0-91.428 zM 246.643,214.857l 91.428,0 l0,82.285 l-91.428,0 l0-82.285 zM 356.358,214.857l 82.285,0 l0,82.285 l-82.285,0 l0-82.285 zM 365.5,352l0,82.285 q0,3.715 -2.715,6.428t-6.428,2.715l-18.285,0  q-3.715,0 -6.428-2.715t-2.715-6.428l0-82.285 q0-3.715 2.715-6.428t 6.428-2.715l 18.285,0 q 3.715,0 6.428,2.715t 2.715,6.428zM 475.214,370.285l0-365.714 q0-14.857 -10.857-25.715t-25.715-10.857l-402.286,0 q-14.857,0 -25.715,10.857t-10.857,25.715l0,365.714 q0,14.857 10.857,25.715t 25.715,10.857l 36.572,0 l0,27.428 q0,18.857 13.428,32.285t 32.285,13.428l 18.285,0 q 18.857,0 32.285-13.428t 13.428-32.285l0-27.428 l 109.715,0 l0,27.428 q0,18.857 13.428,32.285t 32.285,13.428 l 18.285,0 q 18.857,0 32.285-13.428t 13.428-32.285l0-27.428 l 36.572,0 q 14.857,0 25.715-10.857t 10.857-25.715z" horiz-adv-x="475"  />
<glyph unicode="&#xf073;" d="M 420.143,205.714q0-15.428 -10.572-26l-186-186q-11.143-10.572 -26-10.572q-14.572,0 -25.715,10.572l-21.428,21.428q-10.857,10.857 -10.857,26t 10.857,26l 83.715,83.715l-201.143,0 q-14.857,0 -24.143,10.714t-9.286,25.857l0,36.572 q0,15.143 9.286,25.857t 24.143,10.714l 201.143,0 l-83.715,84q-10.857,10.286 -10.857,25.715t 10.857,25.715l 21.428,21.428q 10.857,10.857 25.715,10.857q 15.143,0 26-10.857l 186-186q 10.572-10 10.572-25.715z" horiz-adv-x="438"  />
<glyph unicode="&#xf07a;" d="M 182.643,41.143q0-15.143 -10.714-25.857t-25.857-10.714t-25.857,10.714t-10.714,25.857t 10.714,25.857t 25.857,10.714t 25.857-10.714t 10.714-25.857zM 438.643,41.143q0-15.143 -10.714-25.857t-25.857-10.714t-25.857,10.714t-10.714,25.857t 10.714,25.857t 25.857,10.714t 25.857-10.714t 10.714-25.857zM 475.214,352l0-146.286 q0-6.857 -4.572-12.143t-11.714-6.143 l-298.286-34.857q 0.285-2 1.286-6.143t 1.714-7.572t 0.715-6.285q0-4.572 -6.857-18.285l 262.857,0 q 7.428,0 12.857-5.428t 5.428-12.857t-5.428-12.857t-12.857-5.428l-292.572,0 q-7.428,0 -12.857,5.428t-5.428,12.857q0,4 3.143,11.286t 8.428,17t 5.857,10.857l-50.572,235.143l-58.285,0 q-7.428,0 -12.857,5.428t-5.428,12.857t 5.428,12.857t 12.857,5.428l 73.143,0 q 4.572,0 8.143-1.857t 5.715-4.428t 3.715-7t 2.143-7.572 t 1.571-8.428t 1.286-7.285l 343.143,0 q 7.428,0 12.857-5.428t 5.428-12.857z" horiz-adv-x="475"  />
<glyph unicode="&#xf085;" d="M 255.733,224q0,30.254 -21.405,51.661t-51.661,21.405t-51.661-21.405t-21.405-51.661t 21.405-51.661t 51.661-21.405t 51.661,21.405t 21.405,51.661zM 474.933,77.867q0,14.841 -10.845,25.688t-25.688,10.845t-25.688-10.845t-10.845-25.688q0-15.127 10.703-25.83t 25.83-10.703t 25.83,10.703t 10.703,25.83zM 474.933,370.133q0,14.841 -10.845,25.688t-25.688,10.845t-25.688-10.845t-10.845-25.688q0-15.127 10.703-25.83t 25.83-10.703 t 25.83,10.703t 10.703,25.83zM 365.334,249.973l0-52.802 q0-2.854 -1.998-5.566t-4.567-2.996l-44.239-6.85q-3.14-9.989 -9.134-21.692q 9.704-13.7 25.688-32.822q 1.998-2.854 1.998-5.709q0-3.425 -1.998-5.423q-6.565-8.562 -23.548-25.545t-22.405-16.983q-3.14,0 -5.994,1.998l-32.822,25.688q-10.56-5.423 -21.977-8.848q-3.14-30.825 -6.565-44.239q-1.998-6.85 -8.562-6.85l-53.088,0 q-3.14,0 -5.709,2.141t-2.854,4.995 l-6.565,43.669q-9.704,2.854 -21.405,8.848l-33.679-25.402q-1.998-1.998 -5.709-1.998q-3.14,0 -5.994,2.283q-41.1,37.96 -41.1,45.667q0,2.569 1.998,5.423q 2.854,3.995 11.702,15.127t 13.415,17.41q-6.565,12.559 -9.989,23.404l-43.383,6.85q-2.854,0.285 -4.852,2.712t-1.998,5.566l0,52.802 q0,2.854 1.998,5.566t 4.567,2.996l 44.239,6.85q 3.14,9.989 9.134,21.692q-9.704,13.7 -25.688,32.822q-1.998,3.14 -1.998,5.709q0,3.425 1.998,5.709q 6.279,8.562 23.404,25.402t 22.548,16.84q 3.14,0 5.994-1.998 l 32.822-25.688q 9.704,5.138 21.977,9.134q 3.14,30.825 6.565,43.955q 1.998,6.85 8.562,6.85l 53.088,0 q 3.14,0 5.709-2.141t 2.854-4.995l 6.565-43.669q 9.704-2.854 21.405-8.848l 33.679,25.402q 2.283,1.998 5.709,1.998q 3.14,0 5.994-2.283q 41.1-37.96 41.1-45.667q0-2.569 -1.998-5.423q-3.425-4.567 -11.987-15.413t-12.843-17.125q 6.565-13.7 9.704-23.404l 43.383-6.565q 2.854-0.571 4.852-2.996t 1.998-5.566zM 548,97.846l0-39.959 q0-4.567 -42.527-8.848 q-3.425-7.706 -8.562-14.841q 14.556-32.253 14.556-39.387q0-1.142 -1.142-1.998q-34.82-20.265 -35.392-20.265q-2.283,0 -13.13,13.415t-14.841,19.408q-5.709-0.571 -8.562-0.571t-8.562,0.571q-3.995-5.994 -14.841-19.408t-13.13-13.415q-0.571,0 -35.392,20.265q-1.142,0.856 -1.142,1.998q0,7.135 14.556,39.387q-5.138,7.135 -8.562,14.841q-42.527,4.281 -42.527,8.848l0,39.959 q0,4.567 42.527,8.848q 3.711,8.276 8.562,14.841q-14.556,32.253 -14.556,39.387q0,1.142 1.142,1.998q 1.142,0.571 9.989,5.709 t 16.84,9.704t 8.562,4.567q 2.283,0 13.13-13.272t 14.841-19.265q 5.709,0.571 8.562,0.571t 8.562-0.571q 14.556,20.265 26.258,31.967l 1.712,0.571q 1.142,0 35.392-19.979q 1.142-0.856 1.142-1.998q0-7.135 -14.556-39.387q 4.852-6.565 8.562-14.841q 42.527-4.281 42.527-8.848zM 548,390.112l0-39.959 q0-4.567 -42.527-8.848q-3.425-7.706 -8.562-14.841q 14.556-32.253 14.556-39.387q0-1.142 -1.142-1.998q-34.82-20.265 -35.392-20.265q-2.283,0 -13.13,13.415t-14.841,19.408 q-5.709-0.571 -8.562-0.571t-8.562,0.571q-3.995-5.994 -14.841-19.408t-13.13-13.415q-0.571,0 -35.392,20.265q-1.142,0.856 -1.142,1.998q0,7.135 14.556,39.387q-5.138,7.135 -8.562,14.841q-42.527,4.281 -42.527,8.848l0,39.959 q0,4.567 42.527,8.848q 3.711,8.276 8.562,14.841q-14.556,32.253 -14.556,39.387q0,1.142 1.142,1.998q 1.142,0.571 9.989,5.709t 16.84,9.704t 8.562,4.567q 2.283,0 13.13-13.272t 14.841-19.265q 5.709,0.571 8.562,0.571t 8.562-0.571q 14.556,20.265 26.258,31.967l 1.712,0.571q 1.142,0 35.392-19.979 q 1.142-0.856 1.142-1.998q0-7.135 -14.556-39.387q 4.852-6.565 8.562-14.841q 42.527-4.281 42.527-8.848z" horiz-adv-x="548"  />
<glyph unicode="&#xf086;" d="M 402.286,260.571q0-39.715 -26.857-73.428t-73.285-53.285t-101-19.572q-24.572,0 -50.285,4.572q-35.428-25.143 -79.428-36.572q-10.286-2.571 -24.572-4.572l-0.857,0 q-3.143,0 -5.857,2.285t-3.285,6q-0.285,0.857 -0.285,1.857t 0.143,1.857t 0.572,1.714l 0.715,1.429t 1,1.571t 1.143,1.429t 1.286,1.429t 1.143,1.286q 1.429,1.714 6.572,7.143t 7.428,8.428t 6.428,8.286t 7.143,11t 5.857,12.572q-35.428,20.572 -55.715,50.572t-20.285,64 q0,39.715 26.857,73.428t 73.285,53.285t 101,19.572t 101-19.572t 73.285-53.285t 26.857-73.428zM 512,187.428q0-34.285 -20.285-64.143t-55.715-50.428q 2.857-6.857 5.857-12.572t 7.143-11t 6.428-8.286t 7.428-8.428t 6.572-7.143q 0.285-0.285 1.143-1.286t 1.286-1.429t 1.143-1.429t 1-1.571l 0.715-1.429t 0.572-1.714t 0.143-1.857t-0.285-1.857q-0.857-4 -3.715-6.285t-6.285-2 q-14.286,2 -24.572,4.572q-44,11.428 -79.428,36.572q-25.715-4.572 -50.285-4.572q-77.428,0 -134.857,37.715q 16.572-1.143 25.143-1.143q 46,0 88.285,12.857t 75.428,36.857q 35.715,26.285 54.857,60.572t 19.143,72.572q0,22 -6.572,43.428q 36.857-20.285 58.285-50.857t 21.428-65.715z"  />
<glyph unicode="&#xf080;" d="M 146.134,187.467l0-109.6 l-73.066,0 l0,109.6 l 73.066,0 zM 255.733,333.6l0-255.733 l-73.066,0 l0,255.733 l 73.066,0 zM 365.334,260.533l0-182.666 l-73.066,0 l0,182.666 l 73.066,0 zM 474.933,370.133l0-292.267 l-73.066,0 l0,292.267 l 73.066,0 zM 511.466,50.467l0,347.066 q0,3.711 -2.712,6.422t-6.422,2.712l-456.667,0 q-3.711,0 -6.422-2.712t-2.712-6.422l0-347.066 q0-3.711 2.712-6.422t 6.422-2.712l 456.667,0 q 3.711,0 6.422,2.712t 2.712,6.422z M 548,397.534l0-347.066 q0-18.838 -13.415-32.253t-32.253-13.415l-456.667,0 q-18.838,0 -32.253,13.415t-13.415,32.253l0,347.066 q0,18.838 13.415,32.253t 32.253,13.415l 456.667,0 q 18.838,0 32.253-13.415t 13.415-32.253z" horiz-adv-x="548"  />
<glyph unicode="&#xf0b1;" d="M 89.615,444.338C-7.236,375.164, 2.918,149.918, 65.017,41.018
			c 0.089-0.156, 0.739,0.433, 0.739,0.433s 37.78,147.846, 68.886,240.985c 12.722,38.091, 44.049,61.944, 74.354,69.291
			c 104.632,25.37, 146.968-84.885, 146.968-84.885s 76.861,63.006, 146.707,9.647c 32.979-25.186, 48.14-61.916, 44.332-93.25
			c-4.285-35.257-7.742-64.272-7.742-64.272s 0.772,0.228, 1.14,0.528c 43.387,35.029, 71.297,72.453, 70.325,107.205
			C 606.659,372.191, 210.153,530.447, 89.615,444.338z M 261.337,282.948c-34.468,9.842-53.624-14.877-59.433-28.559
			c-4.568-10.77-76.193-270.435-76.193-270.435s 0.661-0.211, 0.989-0.317c 28.866-9.003, 70.969-7.214, 118.47,2.395
			c 0.5,0.105, 1.501,0.311, 1.501,0.311s 54.035,228.319, 54.526,234.466C 302.312,234.781, 303.752,269.993, 261.337,282.948z M 438.901,232.869
			c-25.604,7.709-45.633,0.345-58.004-21.43c-14.071-24.764-58.365-203.622-58.365-203.622s 0.144-0.050, 1.162,0.289
			c 43.799,14.577, 88.576,33.795, 129.313,55.765c 0.794,0.428, 0.739,0.412, 0.739,0.412s 18.456,101.691, 18.907,121.265
			C 473.15,207.133, 457.485,227.278, 438.901,232.869z" horiz-adv-x="628"  />
<glyph unicode="&#xf0e6;" d="M 201.143,370.285q-43.715,0 -81.715-14.857t-60.428-40.285t-22.428-54.572q0-23.428 15.143-45.143t 42.572-37.715l 27.715-16l-10-24q 9.714,5.715 17.715,11.143l 12.572,8.857l 15.143-2.857q 22.285-4 43.715-4q 43.715,0 81.715,14.857t 60.428,40.285t 22.428,54.572t-22.428,54.572t-60.428,40.285t-81.715,14.857zM 201.143,406.857q 54.572,0 101-19.572t 73.285-53.285t 26.857-73.428t-26.857-73.428 t-73.285-53.285t-101-19.572q-24.572,0 -50.285,4.572q-35.428-25.143 -79.428-36.572q-10.286-2.571 -24.572-4.572l-0.857,0 q-3.143,0 -5.857,2.285t-3.285,6q-0.285,0.857 -0.285,1.857t 0.143,1.857t 0.572,1.714l 0.715,1.429t 1,1.571t 1.143,1.429t 1.286,1.429t 1.143,1.286q 1.429,1.714 6.572,7.143t 7.428,8.428t 6.428,8.286t 7.143,11t 5.857,12.572q-35.428,20.572 -55.715,50.572t-20.285,64q0,39.715 26.857,73.428t 73.285,53.285 t 101,19.572zM 436,72.857q 2.857-6.857 5.857-12.572t 7.143-11t 6.428-8.286t 7.428-8.428t 6.572-7.143q 0.285-0.285 1.143-1.286t 1.286-1.429t 1.143-1.429t 1-1.571l 0.715-1.429t 0.572-1.714t 0.143-1.857t-0.285-1.857q-0.857-4 -3.715-6.285t-6.285-2q-14.286,2 -24.572,4.572q-44,11.428 -79.428,36.572q-25.715-4.572 -50.285-4.572q-77.428,0 -134.857,37.715q 16.572-1.143 25.143-1.143q 46,0 88.285,12.857t 75.428,36.857 q 35.715,26.285 54.857,60.572t 19.143,72.572q0,22 -6.572,43.428q 36.857-20.285 58.285-50.857t 21.428-65.715q0-34.285 -20.285-64.143t-55.715-50.428z"  />
<glyph unicode="&#xf108;" d="M 511.466,196.6l0,237.467 q0,3.711 -2.712,6.422t-6.422,2.712l-456.667,0 q-3.711,0 -6.422-2.712t-2.712-6.422l0-237.467 q0-3.711 2.712-6.422t 6.422-2.712l 456.667,0 q 3.711,0 6.422,2.712t 2.712,6.422zM 548,434.067l0-310.534 q0-18.838 -13.415-32.253t-32.253-13.415l-155.266,0 q0-10.56 4.567-22.12t 9.134-20.265t 4.567-12.416q0-7.421 -5.423-12.843t-12.843-5.423l-146.134,0 q-7.421,0 -12.843,5.423 t-5.423,12.843q0,3.995 4.567,12.559t 9.134,19.979t 4.567,22.262l-155.266,0 q-18.838,0 -32.253,13.415t-13.415,32.253l0,310.534 q0,18.838 13.415,32.253t 32.253,13.415l 456.667,0 q 18.838,0 32.253-13.415t 13.415-32.253z" horiz-adv-x="548"  />
<glyph unicode="&#xf109;" d="M 118.733,114.4q-18.838,0 -32.253,13.415t-13.415,32.253l0,200.934 q0,18.838 13.415,32.253t 32.253,13.415l 310.534,0 q 18.838,0 32.253-13.415t 13.415-32.253l0-200.934 q0-18.838 -13.415-32.253t-32.253-13.415l-310.534,0 zM 109.6,361l0-200.934 q0-3.711 2.712-6.422t 6.422-2.712l 310.534,0 q 3.711,0 6.422,2.712t 2.712,6.422l0,200.934 q0,3.711 -2.712,6.422t-6.422,2.712l-310.534,0 q-3.711,0 -6.422-2.712t-2.712-6.422z M 502.333,96.134l 45.667,0 l0-27.4 q0-11.417 -13.415-19.408t-32.253-7.992l-456.667,0 q-18.838,0 -32.253,7.992t-13.415,19.408l0,27.4 l 45.667,0 l 456.667,0 zM 296.833,68.733q 4.567,0 4.567,4.567t-4.567,4.567l-45.667,0 q-4.567,0 -4.567-4.567t 4.567-4.567l 45.667,0 z" horiz-adv-x="548"  />
<glyph unicode="&#xf10a;" d="M 182.786,77.714q0,7.428 -5.428,12.857t-12.857,5.428t-12.857-5.428t-5.428-12.857t 5.428-12.857t 12.857-5.428t 12.857,5.428t 5.428,12.857zM 292.5,123.428l0,274.286 q0,3.715 -2.715,6.428t-6.428,2.715l-237.714,0 q-3.715,0 -6.428-2.715t-2.715-6.428l0-274.286 q0-3.715 2.715-6.428t 6.428-2.715l 237.714,0 q 3.715,0 6.428,2.715t 2.715,6.428zM 329.072,397.715l0-310.857 q0-18.857 -13.428-32.285t-32.285-13.428l-237.714,0  q-18.857,0 -32.285,13.428t-13.428,32.285l0,310.857 q0,18.857 13.428,32.285t 32.285,13.428l 237.714,0 q 18.857,0 32.285-13.428t 13.428-32.285z" horiz-adv-x="329"  />
<glyph unicode="&#xf10b;" d="M 132.357,77.714q0,9.428 -6.715,16.143t-16.143,6.715t-16.143-6.715t-6.715-16.143t 6.715-16.143t 16.143-6.715t 16.143,6.715t 6.715,16.143zM 191.786,123.428l0,201.143 q0,3.715 -2.715,6.428t-6.428,2.715l-146.286,0 q-3.715,0 -6.428-2.715t-2.715-6.428l0-201.143 q0-3.715 2.715-6.428t 6.428-2.715l 146.286,0 q 3.715,0 6.428,2.715t 2.715,6.428zM 136.929,365.715 q0,4.572 -4.572,4.572l-45.715,0 q-4.572,0 -4.572-4.572t 4.572-4.572l 45.715,0 q 4.572,0 4.572,4.572zM 219.214,370.285l0-292.572 q0-14.857 -10.857-25.715t-25.715-10.857l-146.286,0 q-14.857,0 -25.715,10.857t-10.857,25.715l0,292.572 q0,14.857 10.857,25.715t 25.715,10.857l 146.286,0 q 14.857,0 25.715-10.857t 10.857-25.715z" horiz-adv-x="219"  />
<glyph unicode="&#xf130;" d="M 127.572,352q0,15.143 -10.714,25.857t-25.857,10.714t-25.857-10.714t-10.714-25.857t 10.714-25.857t 25.857-10.714t 25.857,10.714t 10.714,25.857zM 432.428,187.428q0-15.143 -10.572-25.715l-140.286-140.571q-11.143-10.572 -26-10.572q-15.143,0 -25.715,10.572l-204.286,204.571q-10.857,10.572 -18.428,28.857t-7.572,33.428l0,118.857 q0,14.857 10.857,25.715t 25.715,10.857l 118.857,0 q 15.143,0 33.428-7.572t 29.143-18.428 l 204.286-204q 10.572-11.143 10.572-26z" horiz-adv-x="438"  />
<glyph unicode="&#xf131;" d="M 77.285,210l-28.857-28.857q-12,29.428 -12,61.143l0,36.572 q0,7.428 5.428,12.857t 12.857,5.428t 12.857-5.428t 5.428-12.857l0-36.572 q0-15.143 4.285-32.285zM 395.572,382l-103.143-103.143l0-36.572 q0-37.715 -26.857-64.572t-64.572-26.857q-15.714,0 -31.143,5.428l-27.428-27.428q 27.715-14.572 58.572-14.572q 52.857,0 90.428,37.572t 37.572,90.428l0,36.572 q0,7.428 5.428,12.857t 12.857,5.428t 12.857-5.428t 5.428-12.857l0-36.572  q0-63.143 -42.143-109.857t-104.143-53.572l0-37.715 l 73.143,0 q 7.428,0 12.857-5.428t 5.428-12.857t-5.428-12.857t-12.857-5.428l-182.857,0 q-7.428,0 -12.857,5.428t-5.428,12.857t 5.428,12.857t 12.857,5.428l 73.143,0 l0,37.715 q-35.715,3.715 -67.143,23.143l-72.572-72.572q-2.857-2.857 -6.572-2.857t-6.572,2.857l-23.428,23.428q-2.857,2.857 -2.857,6.572t 2.857,6.572l 352.572,352.572q 2.857,2.857 6.572,2.857t 6.572-2.857l 23.428-23.428q 2.857-2.857 2.857-6.572 t-2.857-6.572zM 287,419.715l-177.429-177.429l0,146.286 q0,37.715 26.857,64.572t 64.572,26.857q 29.143,0 52.715-16.857t 33.285-43.428z" horiz-adv-x="402"  />
<glyph unicode="&#xe000;" d="M0-32l 256,0 L 256,480 L0,480 L0-32 z M 160,416l 64,0 l0-64 l-64,0 L 160,416 z M 160,288l 64,0 l0-64 l-64,0 L 160,288 z M 160,160l 64,0 l0-64 l-64,0 L 160,160 z M 32,416l 64,0 l0-64 L 32,352 L 32,416 z M 32,288
			l 64,0 l0-64 L 32,224 L 32,288 z M 32,160l 64,0 l0-64 L 32,96 L 32,160 zM 288,320L 512,320L 512,288L 288,288zM 288-32L 352-32L 352,96L 448,96L 448-32L 512-32L 512,256L 288,256 		z"  />
<glyph unicode="&#xe001;" d="M0,416l0-416 l 512,0 L 512,416 L0,416 z M 480,32L 32,32 L 32,384 l 448,0 L 480,32 zM 352,304A48,48 3420 1 1 448,304A48,48 3420 1 1 352,304zM 448,64 L 64,64 L 160,320 L 288,160 L 352,208 Z"  />
<glyph unicode="&#xe002;" d="M 256,480C 114.615,480,0,365.385,0,224s 114.615-256, 256-256s 256,114.615, 256,256S 397.385,480, 256,480z M 160,224
	c0,53.020, 42.98,96, 96,96s 96-42.98, 96-96s-42.98-96-96-96S 160,170.98, 160,224z M 462.99,138.262L 462.99,138.262l-88.71,36.745
	C 380.539,190.099, 384,206.645, 384,224s-3.461,33.901-9.72,48.993l 61.063,25.293l 27.647,11.452C 473.944,283.327, 480,254.373, 480,224
	C 480,193.627, 473.943,164.673, 462.99,138.262L 462.99,138.262z M 341.739,430.99L 341.739,430.99L 341.739,430.99l-36.745-88.71
	C 289.902,348.539, 273.356,352, 256,352s-33.901-3.461-48.993-9.72l-17.23,41.599l-19.515,47.112C 196.673,441.943, 225.628,448, 256,448
	C 286.373,448, 315.327,441.943, 341.739,430.99z M 49.010,309.738l 47.112-19.515l 41.599-17.23C 131.462,257.901, 128,241.355, 128,224
	s 3.461-33.901, 9.72-48.993l-88.71-36.745C 38.057,164.673, 32,193.627, 32,224C 32,254.373, 38.057,283.327, 49.010,309.738z
	 M 170.262,17.010l 11.452,27.647l 25.293,61.063C 222.099,99.461, 238.645,96, 256,96s 33.901,3.461, 48.993,9.72l 36.745-88.71l0,0l0,0
	C 315.327,6.058, 286.373,0, 256,0C 225.628,0, 196.673,6.057, 170.262,17.010z"  />
<glyph unicode="&#xe003;" d="M 488.791,382.769c-16.992,4.854-34.705-4.985-39.56-21.978L 446.72,352L 148.249,352 l-4.496,35.969
		C 141.751,403.983, 128.138,416, 112,416L 32,416 C 14.327,416,0,401.673,0,384s 14.327-32, 32-32l 51.751,0 l 28.496-227.969
		C 114.249,108.018, 127.862,96, 144,96l 272,0 c 14.287,0, 26.844,9.472, 30.769,23.209l 64,224
		C 515.624,360.202, 505.784,377.914, 488.791,382.769z M 256,224l0,32 l 63.998,0 l0-32 L 256,224 z M 319.998,192l0-32 L 256,160 l0,32 L 319.998,192 z M 256,288l0,32 
		l 63.998,0 l0-32 L 256,288 z M 152.249,320L 224,320 l0-32 l-67.751,0 L 152.249,320z M 160.249,256L 224,256 l0-32 l-59.751,0 L 160.249,256z M 168.249,192L 224,192 l0-32 l-51.751,0 
		L 168.249,192z M 391.862,160l-39.864,0 l0,32 l 49.007,0 L 391.862,160z M 410.148,224l-58.15,0 l0,32 l 67.293,0 L 410.148,224z M 428.434,288l-76.436,0 
		l0,32 l 85.579,0 L 428.434,288zM 128,16A48,48 3420 1 1 224,16A48,48 3420 1 1 128,16zM 320,16A48,48 3420 1 1 416,16A48,48 3420 1 1 320,16z"  />
<glyph unicode="&#xe004;" d="M 256,480C 167.634,480, 96,408.366, 96,320c0-160, 160-352, 160-352s 160,192, 160,352C 416,408.366, 344.365,480, 256,480z M 256,222
	c-54.124,0-98,43.876-98,98s 43.876,98, 98,98s 98-43.876, 98-98S 310.124,222, 256,222zM 194,320A62,62 1980 1 1 318,320A62,62 1980 1 1 194,320z"  />
<glyph unicode="&#xe005;" d="M 512,64L 512,448 L0,448 l0-384 l 224,0 l0-32 l-96,0 l0-32 l 256,0 l0,32 l-96,0 l0,32 L 512,64 z M 64,384l 384,0 l0-256 L 64,128 L 64,384 z"  />
<glyph unicode="&#xe006;" d="M 448,128L 448,384 c0,17.6-14.4,32-32,32L 96,416 c-17.6,0-32-14.4-32-32l0-256 L0,128 l0-96 l 512,0 l0,96 L 448,128 z M 320,64L 192,64 l0,32 l 128,0 L 320,64 z M 416,128L 96,128 
	L 96,383.943 c 0.017,0.020, 0.038,0.041, 0.057,0.057l 319.885,0 c 0.020-0.017, 0.041-0.038, 0.058-0.058L 416,128 z"  />
<glyph unicode="&#xe007;" d="M 368,480L 144,480 c-26.4,0-48-21.6-48-48l0-416 c0-26.4, 21.6-48, 48-48l 224,0 c 26.4,0, 48,21.6, 48,48L 416,432 C 416,458.4, 394.4,480, 368,480z M 192,456
	l 128,0 l0-16 L 192,440 L 192,456 z M 256,0c-17.673,0-32,14.327-32,32s 14.327,32, 32,32s 32-14.327, 32-32S 273.673,0, 256,0z M 384,96L 128,96 L 128,416 l 256,0 L 384,96 
	z"  />
<glyph unicode="&#xe008;" d="M 384,480L 96,480 C 78.4,480, 64,465.601, 64,448l0-448 c0-17.6, 14.399-32, 32-32l 288,0 c 17.6,0, 32,14.4, 32,32L 416,448 C 416,465.601, 401.6,480, 384,480z
	 M 240-8.891c-13.746,0-24.891,11.145-24.891,24.891s 11.145,24.891, 24.891,24.891s 24.891-11.145, 24.891-24.891
	S 253.746-8.891, 240-8.891z M 384,64L 96,64 L 96,416 l 288,0 L 384,64 z"  />
<glyph unicode="&#xe009;" d="M 400,480L 80,480 C 53.6,480, 32,458.4, 32,432l0-416 c0-26.4, 21.6-48, 48-48l 320,0 c 26.4,0, 48,21.6, 48,48L 448,432 C 448,458.4, 426.4,480, 400,480z M 240-16
	c-8.836,0-16,7.163-16,16s 7.164,16, 16,16s 16-7.163, 16-16S 248.836-16, 240-16z M 384,32L 96,32 L 96,416 l 288,0 L 384,32 z"  />
<glyph unicode="&#xe00a;" d="M 240,480 L 240,480 C 372.548,480 480,393.043 480,285.776 C 480,178.509 372.548,91.552 240,91.552 C 227.271,91.552 214.777,92.362 202.583,93.907 C 151.030,42.56 91.497,33.353 32,32 L 32,44.567 C 64.126,60.244 90,88.8 90,121.434 C 90,125.987 89.644,130.458 88.985,134.831 C 34.706,170.438 0,224.825 0,285.776 C 0,393.043 107.452,480 240,480 ZM 498,44.657 C 498,16.686 516.157-7.792 544-21.229 L 544-32 C 492.437-30.841 445.107-22.949 400.429,21.063 C 389.859,19.738 379.032,19.043 368,19.043 C 320.265,19.043 276.296,31.922 241.193,53.563 C 313.53,53.816 381.823,76.99 433.61,118.899 C 459.714,140.025 480.307,164.812 494.817,192.573 C 510.2,222.006 518,253.364 518,285.776 C 518,291 517.775,296.194 517.371,301.36 C 553.656,271.393 576,230.549 576,185.522 C 576,133.278 545.921,86.661 498.88,56.14 C 498.309,52.392 498,48.56 498,44.657 Z" horiz-adv-x="576"  />
<glyph unicode="&#xe00b;" d="M 160,384A96,96 11700 1 1 352,384A96,96 11700 1 1 160,384zM 384.039,256l-0.078,0 l-17.634,0 l-99.552-202.122L 304,240l-48,48l-48-48l 37.225-186.122L 145.674,256l-17.635,0 l-0.077,0 
		C 64,256, 64,213.007, 64,160l0-160 l 384,0 L 448,160 C 448,213.007, 448,256, 384.039,256z"  />
<glyph unicode="&#xe00c;" d="M 64,32 L 512,32 L 512-32 L 0-32 L 0,480 L 64,480 ZM 144,64 C 117.49,64 96,85.49 96,112 C 96,138.51 117.49,160 144,160 C 145.414,160 146.811,159.926 148.194,159.807 L 199.79,245.8 C 194.87,253.335 192,262.331 192,272.001 C 192,298.511 213.49,320.001 240,320.001 C 266.51,320.001 288,298.511 288,272.001 C 288,262.33 285.13,253.335 280.21,245.8 L 331.806,159.807 C 333.189,159.926 334.586,160 336,160 C 337.068,160 338.124,159.953 339.175,159.885 L 424.353,308.946 C 419.085,316.65 416,325.964 416,336.001 C 416,362.511 437.49,384.001 464,384.001 C 490.51,384.001 512,362.511 512,336.001 C 512,309.491 490.51,288.001 464,288.001 C 462.93,288.001 461.876,288.048 460.825,288.117 L 375.647,139.055 C 380.915,131.352 384,122.037 384,112 C 384,85.49 362.51,64 336,64 C 309.49,64 288,85.49 288,112 C 288,121.67 290.87,130.666 295.789,138.201 L 244.194,224.193 C 242.811,224.074 241.414,224 240,224 C 238.586,224 237.189,224.073 235.806,224.193 L 184.21,138.2 C 189.13,130.666 192,121.67 192,112 C 192,85.49 170.51,64 144,64 Z"  />
<glyph unicode="&#xe00d;" d="M 512,338.75L 466.747,384L 377.374,294.624L 326.624,345.375L 415.999,434.75L 370.749,480L 281.374,390.625L 224,448L 180.687,404.688L 436.688,148.687L 480,191.999L 422.624,249.375 	zM 137.374,105.373c 82.884-82.881, 192.597-18.181, 259.646,37.732L 175.108,365.017
		C 119.196,297.969, 54.494,188.256, 137.374,105.373zM 95.999,127.998L 159.996,64L 64-31.996L 0.002,32.001z"  />
<glyph unicode="&#xe00e;" d="M 437.020,405.019 C 485.371,356.667 512,292.379 512,223.999 C 512,155.619 485.371,91.332 437.020,42.98 C 388.667-5.371 324.38-32 256-32 C 187.62-32 123.333-5.371 74.98,42.98 C 26.629,91.332 0,155.619 0,223.999 C 0,292.379 26.627,356.667 74.98,405.019 C 123.333,453.371 187.62,480 256,480 C 324.38,480 388.667,453.371 437.020,405.019 Z M 414.392,65.607 C 445.921,97.137 466.885,136.411 475.528,179.138 C 468.791,169.22 462.347,165.541 458.356,187.741 C 454.246,223.936 421.002,200.815 400.098,213.671 C 378.096,198.842 328.645,242.502 337.049,193.259 C 350.016,171.048 407.053,222.984 378.623,175.988 C 360.486,143.18 312.302,70.522 318.57,32.859 C 319.361-22.013 262.503,21.417 242.913,39.619 C 229.735,76.079 238.422,139.806 203.964,157.662 C 166.563,159.286 134.462,162.685 119.967,204.497 C 111.244,234.411 129.249,278.944 161.306,285.819 C 208.231,315.302 224.993,251.292 269.001,250.102 C 282.665,264.399 319.909,268.945 322.997,284.977 C 294.122,290.072 359.631,309.256 320.233,320.168 C 298.498,317.612 284.494,297.631 296.049,280.689 C 253.93,270.868 252.581,341.641 212.094,319.318 C 211.065,284.023 145.983,307.875 189.576,315.032 C 204.554,321.576 165.146,340.54 186.436,337.094 C 196.894,337.662 232.102,350 222.574,358.295 C 242.179,370.465 258.654,329.15 277.843,359.236 C 291.697,382.369 272.033,386.64 254.668,374.914 C 244.878,385.876 271.953,409.552 295.834,419.783 C 303.793,423.193 311.395,425.051 317.207,424.525 C 329.236,410.629 351.482,408.222 352.646,426.196 C 322.855,440.463 290.008,448 256,448 C 207.189,448 160.765,432.488 122.346,403.805 C 132.671,399.075 138.532,393.186 128.585,385.657 C 120.857,362.63 89.5,331.719 61.973,336.095 C 47.68,311.447 38.267,284.292 34.243,255.831 C 57.299,248.203 62.615,233.106 57.661,228.056 C 45.913,217.812 38.693,203.291 34.973,187.395 C 42.478,141.477 64.059,99.157 97.608,65.607 C 139.916,23.3 196.167,0 256,0 C 315.832,0 372.084,23.3 414.392,65.607 Z"  />
<glyph unicode="&#xe00f;" d="M 464,416L 48,416 C 21.488,416,0,394.512,0,368l0-288 c0-26.496, 21.488-48, 48-48l 416,0 c 26.512,0, 48,21.504, 48,48L 512,368 C 512,394.512, 490.512,416, 464,416z M 43.856,64.16
	L 32.16,75.872l 131.984,131.968l 11.696-11.712L 43.856,64.16z M 468.144,64.16l-131.984,131.968l 11.696,11.712l 131.984-131.968L 468.144,64.16z M 272,170.8
	L 272,160 l-32,0 l0,10.8 L 32.048,363.6l 20.352,20.352L 256,195.184L 459.6,383.952l 20.352-20.352L 272,170.8z"  />
<glyph unicode="&#xe010;" d="M 248,224c-35.344,0-64,28.656-64,64l-96,0 l0-160 c0-88.352, 71.632-160, 160-160
		c 88.368,0, 160,71.648, 160,160L 408,288 l-96,0 C 312,252.656, 283.344,224, 248,224z M 184,352c0,35.344, 28.656,64, 64,64s 64-28.656, 64-64l0-32 l 96,0 
		c0,88.368-71.632,160-160,160c-88.368,0-160-71.632-160-160l 96,0 L 184,352 z M 232,368l0-96 c0-8.832, 7.168-16, 16-16s 16,7.168, 16,16L 264,368 c0,8.832-7.168,16-16,16
		S 232,376.832, 232,368z"  />
<glyph unicode="&#xe011;" d="M 267.024,197.52L 352,0l-64-32l-74.336,202.848L 96,64L 96,480 l 320-256L 267.024,197.52z"  />
<glyph unicode="&#xe012;" d="M 256-32C 114.624-32,0,82.624,0,224C0,365.376, 114.624,480, 256,480c 141.376,0, 256-114.624, 256-256
	C 512,82.624, 397.376-32, 256-32z M 463.488,245.456c 0.416,0.208, 0.64,0.56, 0.8,1.12c 0.336-1.776, 1.152-3.344, 2.464-4.496
	c 0.032-0.16-0.048-0.128, 0.032-0.352c 0.128,0, 0.224,0.096, 0.336,0.096C 468.464,240.736, 470.128,240, 472,240c 2.88,0, 5.28,1.6, 6.688,3.856
	c 0.096-0.112, 0.256-0.256, 0.336-0.384c-0.016,0.256-0.048,0.512-0.080,0.768C 479.568,245.376, 480,246.624, 480,248
	c0,4.416-3.6,8-8,8c-2.816,0-5.152-1.536-6.592-3.712c-0.064,0.048,0,0.24-0.176,0.176
	c 0.208,0.608-0.352,2.16-1.232,3.824L 464,248 C 464,247.088, 463.744,246.272, 463.488,245.456z M 95.872,247.856c0,2.416-5.504,6.528-6.928,6.528
	c0,0.432-2.24,5.36-3.088,5.36c0,1.664-5.84,9.136-6.768,5.872c-0.608-2.112, 4.464-4.96, 4.464-7.408
	c 0.944,0, 4.912-7.52, 5.696-8.832c 8.672-14.656-6.48-4.64-6.48,1.568c-1.936,0.96-4.992,8.336-4.992,10.352
	c-1.136,0.912-4.496,8.032-4.224,8.032c0,4.672-2.576,6.912-7.696,6.912c-0.24,0.464-4.544,6.512-4.624,6.512
	c0,1.92-3.456,7.872-5.376,8.816c0,3.984-2.048,8.896-1.136,13.024c0,4.336-0.224,9.248-1.696,13.696C 39.664,289.6, 32,257.728, 32,224
	c0-96.656, 61.344-178.784, 147.136-210.192c 0.096,7.936, 0.688,17.44, 2.496,17.44c0,1.184, 1.008,6.144, 1.92,6.144c0,3.040, 0.368,6.704,0,10.352
	c-1.136,2.288, 1.504,5.216, 2.304,8.816c 4.432,2.224, 1.296,24.528, 4.64,24.528c0,11.152, 2.496,17.648, 0.752,27.984
	c 0.848,0-5.040,6.256-4.992,6.144c-5.648,0-9.6,9.056-9.6,13.024c-0.544,1.744-1.936,4.352-1.936,6.512
	c 1.296,0-8.080,13.696-8.080,13.424c-4.96,2.752, 0.272,6.592, 0.768,11.104c-4.304,1.424, 0.048,13.040, 1.92,13.040
	c 0.192,1.472, 0.96,2.48, 2.32,3.056c 0.96-3.824, 5.424,1.904, 1.92,1.904c0,2.528-0.288,7.936,0,9.2
	c0,3.904-3.456,11.552-6.144,3.456c-2.88,1.424-10.144,1.168-10.768,5.744c 0.448,2.256-4.144,6.864-5.76,7.664
	c 1.504,3.936-7.792,9.2-11.152,9.2c0,0.848-1.776,0.464-2.304,1.536c-3.424,0-4.208,4.608-8.080,4.608
	c-4.464,0-8.96,3.056-13.072,3.056c-1.376,2.736-7.76,1.664-9.232,4.608c-3.344,0-4.656,6.336-4.752,8.672
	C 102.16,237.904, 99.872,247.856, 95.872,247.856z M 419.968,376.256C 419.936,376.16, 420,376.224, 419.84,375.904c 0.24,0, 0.528-0.272, 0.8-0.384
	C 420.4,375.76, 420.192,376, 419.968,376.256z M 424.784,370.96c 0.56-1.088, 0.976-2.096, 0.848-2.72c 0.56-0.016, 0.832,0.288, 1.28,0.4
	C 426.224,369.424, 425.472,370.16, 424.784,370.96z M 438.688,298.064c 0.256,6.912-5.76,5.76-7.664,9.6c-1.984,0-2.704,1.536-5.392,1.536
	c-1.744,0.592-3.12,0.176-4.128-1.248c-4.112-1.568-1.632,2-4.72,2c 0.144,3.952-1.424,5.040-5.776,4.608
	c-2.496-5.632-6.336-9.008-5.76-15.344c 1.84-0.416, 1.52-0.832, 1.152-2.672c 2.448-0.128, 17.296,0.768, 17.296,2.304
	c 0.512,0, 3.088-5.296, 3.088-0.768c 2.064,0, 3.152-4.848, 8.080-3.44C 434.864,293.648, 443.088,298.064, 438.688,298.064z M 439.472,216.416
	c 0.288,1.408-0.704,2.032-1.536,3.456c 2.192,0-6.928,16.912-6.928,19.552c-1.392,0.688-3.168,5.52-3.488,7.28
	c-1.872,1.248-3.808,5.344-4.608,7.664c-1.904,1.264-6.544,6.928-7.296,9.584c 2.752-0.304, 6.912-0.864, 6.912,2.688
	c-1.856,0-2.128,2.288-0.368,2.288c-0.576,2.352, 1.248,4.048, 1.648,5.888c 0.48,2.224, 1.424,5.648, 1.424,8.304
	c-2.64,0-3.28-0.448-5.376-1.152c0-1.552-4.688,0.384-5.376,0.384c-1.008,2.016-8.32-2.624-10.368,1.536
	c-3.312,2.992-2.416,5.296-3.488,9.52c-0.544,2.144-3.472,2.272-5.248,2.624c-5.008,0.976-1.392-5.968-1.664-7.552
	c 3.072,0-1.936-3.808-1.936-5.744c-5.184,1.12-3.456,6.896-6.512,8.432c-0.912,1.536-0.192,2.688-2.32,2.688
	c0,2.048, 1.088,5.76-1.152,6.512c0,0.992-4.352,1.392-4.992,2.688c-2.752,0-9.152,10.4-11.12,6.896
	c-1.232-2.24, 1.040-2.784, 1.504-4.608c 3.984,0.784, 3.6-6.56, 8.464-5.744c0-1.024, 0.128-2.064, 0.368-3.072
	c 3.6,0.848, 3.184-2.672, 4.992-2.672c-1.312-1.744-5.472,2.784-4.336-1.024c 0.656-2.208, 0.288-4.096-2.576-6.256
	c0,2.384-0.192,8.816-2.688,8.816c-1.696,3.392-6.736,2.576-8.864,5.744c-1.728,0-2.4,5.376-5.376,5.744
	c-0.56-0.784-2.656-1.536-3.472-1.536c-1.616-3.248-10.752-0.336-10.752-0.768c-0.144-0.032-5.12-12.192-5.408-13.792
	c-0.56-3.44-3.328-3.504-4.16-6.768c-0.416-1.632-10.448-0.864-10.448-2.064c-4.336,1.44-8.080,4.48-8.080,9.2
	c-0.352,0, 0.816,12.048, 1.552,13.808c 0.88-0.24, 1.056-0.544, 1.552-1.536c 2.656,0.992, 8.848-0.656, 8.848,2.304
	c 2.576-0.064, 3.344-1.088, 2.304-3.072c 2.4-0.448, 6.544-1.056, 6.544,2.304c-1.408,0-1.552,0.128-1.552,1.536
	c 4.608,4.784-3.456,9.104-3.456,11.488c-1.632,0.544-4.96,4.080-2.592,2.752c 2-1.104, 9.312-3.392, 6.432,1.472
	c 0.192,0.064, 0.32,0.192, 0.368,0.368c 0.816-0.576, 4.256-4.112, 4.256-0.768c 0.944,0, 4.592,2.304, 1.536,2.304
	c 0.288,1.728, 0.224,3.168, 0.368,4.224c 4.88-2.624, 2.16,1.792, 4.624,3.44c0-3.184, 2.624,1.536, 4.224,1.536
	c 1.904,2.832, 6.256,0.64, 7.312,3.84c-2.352,0.768-1.92,6.656-1.92,8.8c 2.832-0.464, 5.984,3.824, 6.416,0.88
	c 0.16-1.136, 0.304-4.272, 0.88-4.704c 4.208-2.208, 3.088,1.264, 3.088,3.44c-1.408,0-3.28,4.928-3.472,7.296
	c-1.152-0.16-3.008-0.64-3.472-1.52c-4.192,0-7.040,1.52-10.368,1.52c-0.256,0.512-4.256,4.992-3.84,4.992
	c-2.336,4.016, 2.336,2.848, 3.072,3.040c0,3.808, 15.856,3.136, 16.544,9.216c-5.216,0, 5.376,8.832, 5.376,8.8
	c 3.536,3.024, 5.408,5.632, 9.808,5.968c 1.856,0.128, 22.496,5.824, 22.496,3.248c 0.832-0.032, 3.584-0.064, 6.432-0.16
	C 368.256,425.12, 314.864,448, 256,448c-57.008,0-108.896-21.472-148.432-56.56c 0.352-0.8, 0.624-1.568, 0.608-2.112
	C 110.272,389.472, 113.28,390.816, 113.952,388.16C 112.912,388.176, 111.872,388.304, 110.88,388.56c 0.736-5.936-2.592-2.304-5.376-2.304
	c0,0.144-1.232,0.64-2.544,0.992c-0.848-0.8-1.744-1.552-2.592-2.352C 100.464,384.64, 100.32,384.624, 100.48,384.336
	c 0.896,0, 0.432-1.392, 2.992-2.24C 106.432,381.088, 109.68,380.528, 112.8,380.032c 2.528-0.4, 3.984,0.464, 6.144,0.464
	c0,0.32, 5.28,2.672, 1.552,2.672c 0.512,2.112-0.432,2.64-2.704,2.672c 0.192,2.24, 5.52,0.768, 7.696,0.768
	c 1.664,2.8, 0.048,2.464, 1.52,5.008c 1.76,3.12, 3.856,0.416, 5.008,3.408C 133.76,394.384, 135.312,393.44, 135.872,391.232
	C 137.264,390.080, 144.336,379.648, 144.336,387.024C 146.864,386.176, 148.128,381.44, 148.176,378.96c 4.592,0.672, 4.992,4.112, 4.992,7.68
	c 1.056,0-0.384,1.712-0.384,2.304C 154.496,389.568, 156.64,387.312, 156.64,389.696c 0.736,0, 0.768-0.736, 0.768-1.536
	c 2.384-0.464, 3.92,0.272, 5.376-0.24c 1.008-0.352, 0.496-5.584, 0.032-7.424c-0.576-2.336-5.040-2.368-5.040-3.456
	c-5.056-3.776, 5.968-5.744, 7.696-8.048c-1.040,0-4.992,0.512-4.992,0.752c-2.496,0-8.544-2.64-10.768-0.752
	c 3.104,0, 4.144,3.728, 4.624,7.28c-2.864,1.072-6.24-0.688-7.040-3.536C 145.952,368.032, 142.832,372.928, 141.264,369.76
	C 140.656,369.568, 135.104,366.992, 135.104,367.856c-6.24-0.88-4.608-6.176-4.608-11.888C 132.976,354.48, 138.016,350.24, 137.792,347.92
	C 143.392,346.928, 145.44,346.336, 150.48,345.616c 0.416-0.816, 2.080-1.584, 3.088-1.904c0-3.296, 2.992-2.704, 5.76-2.704
	c0,4.208, 4.896-3.504, 5.376-4.976c-0.672,0, 1.152-4.304, 1.536-5.76c-0.768,0.272-1.008,0-0.768-0.768
	c 2.432-0.896, 6.288-0.64, 6.928,1.92c-2.336,0-1.552,2.672-1.552,4.224c-2.4,1.6-2.032,4.688, 0.384,5.36
	c0-2.176, 7.92,1.36, 3.456,3.056c 1.088,2.448, 1.824,6.208, 0.048,8.336c-1.136,1.344-2.56,0-3.12,2.016
	c 3.024,0.752, 0.8,6.512, 0.768,9.2c 0.96,0.368, 3.456-0.608, 3.456,0c 2.96,0, 7.888-3.744, 9.616,0.784
	c 4.944-2.256, 1.008-4.4, 6.16-2.688c0-1.216, 5.808-6.896, 6.544-6.896c0-0.272-0.144-1.92, 1.136-1.92
	c0-1.232-0.768,0.704-0.768-1.52c 0.72-0.080, 4.624-0.784, 4.624,0.752c 2.48,0, 4.224,3.040, 4.224,5.36
	c 1.552,1.008, 4.272-8.432, 6.144-8.432c 1.376-2.144, 5.776-5.264, 5.776-7.28c 0.928-0.944, 1.904-0.688, 1.904-3.456
	c 1.168,0, 3.472,4.592, 3.472,0.384c 1.088,0, 4.256-2.336, 4.624-4.208c-2.768,0-0.144-2.688-1.568-2.688
	c0-2.656-5.936-0.544-7.28-0.384c-1.84-8.24-12.944-2.32-19.664-4.448c-3.536-1.12-10.368-8.912-10.736-12.8
	c 4.288-0.048, 6.176,3.712, 10,4.992c 3.12,0, 3.728,1.888, 6.544,2.672c0-0.784, 0.768-0.368, 0.768-1.152
	c-5.472,0-2.144-3.536-0.544-6.112c 0.992-1.6, 2.128-2.368, 3.392-2.864c-0.528-0.928-0.96-1.856-1.296-2.896
	c0-0.016-0.016,0-0.016-0.016c-1.040-0.352-3.072-1.104-3.472-1.92c-6.192-0.688-3.136-0.272-2.72,1.216
	c 0.224-0.528, 2.448-0.048, 2.352-0.064c-0.368,1.856-0.928,1.6-0.384,2.672c-3.36,0-4.992-1.536-7.696-1.536
	c-0.448-0.912-2.8-3.072-3.84-3.072c-0.784-2.368-2.56-6.672-4.624-8.048c0,0.624-5.472-3.44-4.992-3.44
	c-1.216-1.968-2.544-1.904-3.088-4.976c-0.368-0.192-1.92-5.328-1.92-6.128c-2.384-1.584-3.264-8.048-7.312-8.048
	c-2.48-4.928-6.928-4.272-6.928-10.736c 1.504-1.536, 2.080-8.336, 2.544-10.512c 0.576-2.704, 1.472-5.52-2.144-5.584
	c-0.256,0.4-2.784,4.224-2.32,4.224c0,1.584-1.936,6.656-3.072,8.24c-1.52,2.128-4.336-0.336-6.544,0.592
	c-0.944,1.888-7.328,2.304-9.6,2.304c 0.368-1.424, 1.408-1.872, 1.536-3.456c-1.888-0.768-2.976-1.632-4.928-1.36
	c-3.344,0.464-2.944,3.072-6.624,2.704c-5.888-0.592-10-5.472-10-11.312c-0.656,0-0.656-11.504,0-11.504
	c0-3.248, 2.688-5.6, 2.688-8.048c 2.608,0, 5.536-5.744, 8.080-5.744c 0.288-2.032-1.28-2.352, 3.072-2.32
	c0,0.224, 2.368,1.488, 2.688,3.072c-3.008,0.736-0.016,4.608, 1.92,5.36c0-2.736, 3.84,0.912, 3.84,1.152
	c 0.432,0.176, 4.24,1.536, 4.24,1.536c0,3.104, 2.896-0.304, 0.768-1.536c-2.080,0-1.92-3.456-3.072-3.456
	c-0.496-2.464-1.472-4.608-2.048-7.008c-0.736-2.96, 1.664-3.264, 0.896-6.032c 3.056-0.576, 6.144-0.016, 9.232,0
	c 0.016,0.544-0.096,1.072-0.384,1.536c 4.464,0, 0.384-8.432, 3.088-8.432c0-3.184, 1.536-5.664, 1.536-7.664
	c 2.080-1.376, 3.328-3.216, 2.688-5.744c 2.56-0.336, 8.064-0.992, 8.064,2.304c 3.888,0, 4.16-2.64, 3.872-5.36
	c 7.744,0, 2.896,7.664, 6.128,7.664c 0.304,1.264, 0.832,1.488, 1.584,0.656c 1.584-0.848, 2.784,1.584, 4.048,2.352
	c 0.4,0.272, 1.808,1.088, 2.064,1.088c 1.088-0.656, 1.184-0.464, 1.664-1.2c 2.112,0.016, 4.24,1.2, 6.048,2.448
	c 2.768-0.336, 1.872-6.288, 7.056-6.656c 2.080-0.144, 6.896-0.72, 8.688,0.512c 0.448,0.304, 2.096-1.040, 2.272-1.616
	c 1.728,0, 1.6-1.504, 2.336-1.472c 0.176-0.336, 0.432-0.464, 0.784-0.368c 0.224-0.656, 1.6-0.848, 2.32-2.672
	c0-1.664, 3.456-1.952, 3.456-3.056c 2.48-1.248-0.848-1.584, 2.96-2.736c 2.096-0.656, 4.032-1.712, 6.288-1.872
	c 0.72,2.736, 3.056-0.368, 4.24-0.368c 0.608-1.248, 0.928-0.304, 1.52-1.536c 3.568-2.976, 1.216-1.824, 2.688-4.992
	c 1.712-1.12, 2.256-5.024, 2.72-7.28c-1.376,0-0.4-5.264-0.4-5.76c-1.664,0, 4.256-3.152, 4.256,0.784
	c 2.432-0.4, 4.032-3.056, 5.76-3.056c-1.008-2.32, 2.688-4.064, 2.688-0.4c 3.648-0.368, 2.672-5.808, 2.32-7.664
	c 2.704,0, 3.488,1.504, 5.792,1.792C 266.064,158.848, 268.848,160, 272,160c 8.848,0, 16-7.152, 16-16c0-7.968-5.936-14.288-13.568-15.504
	c-1.024-1.168-1.952-2.176-2.016-2.176c0-0.768-0.176-8.416-0.4-8.416c0-1.536-1.168-9.968-2.304-9.968
	c0-4.336-2.832-5.12-3.84-9.2c-2.336-1.728-8.656-4.608-9.632-6.512c-1.808,0-3.152-1.536-4.992-1.536
	c-0.256-0.528-4.176-4.224-3.472-4.224c-0.288-2.72, 0.208-9.12-1.264-10.912c-0.992-1.184-2.416-1.056-1.792-2.912
	c-2.16,0, 0.128-1.536-3.28-1.536c-2.144,0-5.968-3.056-6.080-5.648c-0.144-3.168-0.992-5.456-3.712-7.392
	c0-1.088-4.992-1.408-4.992-4.224c 0.464,0,0-5.216,0-5.744c-1.488,0.048-5.136-1.44-5.76-2.672c-5.024,0-4.416-0.512-7.68-2.688
	c0-0.672-0.464-3.056-1.152-3.056c0-3.888-2.768-0.352-5.008-2.32c 0.88,0, 2-3.824, 1.536-3.824
	c0-3.376-2.096-3.664-4.224-6.144c-1.008-0.672-1.968-3.456-2.688-3.456c0-2.272-1.136-4.336-1.136-6.512
	c 0.48,0, 0.032-0.976, 0.368-1.888c 1.072,0.304, 1.104,1.52, 1.536,1.52c0,1.92, 3.056-1.136, 1.152-1.136
	c-1.584-2.4-3.296-2.448-4.24-5.76c-0.96,0-1.792-0.928-2.496-2.016C 215.712,3.008, 235.488,0, 256,0
	c 78.784,0, 147.936,40.768, 187.872,102.288c 0.24,5.664, 1.12,11.072, 1.744,12.944c 1.568-1.152, 2.736-3.312, 3.84,0
	c-2.768,0.544-2.096,1.504-1.152,3.824c 1.056-0.64, 3.184-1.424, 4.912-1.312c 0.528,0.992, 0.944,2.048, 1.472,3.040
	c-1.568,1.216, 0.592,4.368, 1.344,2.832c 0.4,0.768, 0.752,1.568, 1.12,2.336c-0.176,0.048-0.128-0.064-0.384,0.016
	c0,1.392, 0.256,1.216, 1.168,1.92c 0.016-0.144,0-0.144, 0.032-0.272C 471.936,156.848, 480,189.44, 480,224c0,1.136-0.16,2.224-0.176,3.36
	c-0.416-1.568-1.2-3.264-2.304-3.648c0-1.008-11.44-5.984-10.752-8.048c-2.016,0-9.088-2.016-10.384-4.592
	c-1.424,0-7.168-2.032-7.696-3.072C 441.552,207.984, 442.912,216.416, 439.472,216.416z M 472,304l-8.496,0 
	c-0.064,0.080-0.128,0.096-0.192,0.208c-0.432,0-2.24,4.064-1.536,4.992c 0.688,0, 1.008-0.064, 1.376-0.096
	c-0.72,1.76-1.504,3.488-2.288,5.232c-1.728-1.184-3.248-2.688-5.632-2.832c0-0.656-3.408-7.28,0-7.28
	c0-0.128, 0.064-0.224, 0.096-0.336C 451.248,303.504, 448,300.176, 448,296c0-4.416, 3.584-8, 8-8l 3.152,0 
	c 0.192-1.456, 0.976-2.72, 3.776-3.344c 0.88-3.696, 7.472-5.008, 8.464-1.136c-2.784,0-1.872,2.672-1.632,4.48L 472,288 
	c 4.4,0, 8,3.584, 8,8C 480,300.416, 476.4,304, 472,304z M 448.688,199.968c 0.56-0.032, 4.256,0.064, 4.256,0.72
	c 3.344,0, 7.872,0.464, 11.152,1.552c0-4.96-4.176-7.728-3.472-12.656c-2.768,0-1.552-2.848-1.552-3.824
	c-1.792-1.104-2.064-3.12-4.224-4.224c0-2.224-4.992-5.904-6.464-7.808c-1.664-2.128-6.672-5.824-7.328-8.528
	c 0.176,0.64-9.152-9.712-6.976-9.712c0-1.936-2.624-17.248, 0.768-17.248c0-1.344, 2.896-14.192, 1.136-14.192
	c0-4.128-2.688-6.656-2.688-9.952c-1.312-0.896-3.184-1.392-3.84-2.704c-2.352,0-3.488-4.992-4.608-4.992
	c0-5.328-1.552-9.28-1.552-15.328c 0.432,0-3.072-8.624-3.072-9.184c-2.832-1.904-10-8.736-10-12.288c0,0-4.992-7.008-5.76-8.048
	c-1.504,0-13.088-2.176-13.088-3.072c-2.464,0-8.832-1.936-10.368,0.384c0,2.432-1.328,5.52-1.536,8.832
	c-1.184,0-1.376,4.976-2.688,4.976c0,1.056-7.344,15.728-6.16,15.728c0,1.52-1.312,6.512-1.536,6.512c0,5.28-3.856,9.68-3.856,14.56
	c-1.136,0-3.488,10.72-2.304,10.72c0,5.632, 1.968,9.312, 2.784,15.568c 0.912,6.864-0.432,11.040-1.632,15.888
	c-0.656,0-2.864,3.664-3.088,4.592c-3.088,2.048-4.224,6.112-4.224,9.952c 2.016,2.304, 2.816,10.96, 2.32,13.808
	c-3.888,1.84-5.44,1.152-9.632,1.152c-2.48,4.976-19.136,1.904-23.856,1.904c0-2.72-11.6,0.528-12.688,2.688
	c-2.832,0-8.448,6.016-8.448,8.816c-3.104,2.064-8.064,12.336-8.064,15.712c-2.688,1.344-1.872,6.528-0.4,6.528
	c 0.368,1.44-0.944,5.984-1.568,8.144c-0.464,1.616, 1.568,3.36, 1.568,5.28c0,5.344, 0.128,7.808, 3.12,13.52
	c 0.944,1.792, 2.144,3.472, 3.024,5.712c 1.6,4.016, 2.080,0.192, 4.24,3.776c 2.064,1.024, 3.264,4.448, 5.392,6.128
	c 0.928,1.232, 0.96,1.744,0,2.688c 0.416,0, 2.688,5.904, 2.688,7.264c 3.008,4.176, 0.88,2.272, 3.84,1.92
	c 1.088,1.184, 2.896,4.224, 4.608,4.224c 0.752,1.488, 2.64,2.304, 4.24,2.304c0-2.304, 6.272,0.752, 6.928,0.752
	c 1.072,2.16, 7.984,4.608, 9.616,4.608c0,2.624, 13.632-0.736, 15.776-0.384c0,0.384,0,0.768,0,1.152c 2.912-0.688, 8.224-12.368, 7.68-14.96
	c 2.24,0, 4.32,0.368, 5.776,0c0-2.48, 4.672-3.088, 6.8-3.2c 2.96-0.144, 11.648,0.304, 11.648,4.352c 2.288,0, 4.32-1.6, 3.872-4.208
	c 2.592-0.288, 18-0.592, 16.912-3.824c 2.256,0, 2.832-3.856, 4.992-3.856c-0.432-2.656, 2.688-9.584, 4.992-9.584
	c0-2.304, 1.44-6.544, 3.472-8.032c 1.088-3.296, 4.688-10.24, 8.064-12.272c-1.44-2.72, 2.192-4.96, 3.088-7.664
	c-0.208,0, 0.784-4.016, 1.904-4.608c0-2.72, 5.728-13.808, 8.864-13.808C 447.744,200.88, 444.592,200.272, 448.688,199.968z M 365.632,285.808
	c 0.592,2.288, 1.936,0.512, 3.184,0.096c 2.96-0.96, 1.936,0.048, 4.128,1.040C 372.944,280.704, 369.36,285.44, 365.632,285.808z
	 M 357.536,297.312c 1.568,0, 2-7.040-2.304-5.744c0,1.744-1.104,4.976, 1.168,4.976C 357.056,293.824, 357.536,294.928, 357.536,297.312z
	 M 355.632,301.904c 1.776-0.768, 2.56-0.512, 2.304,0.768c 2.336-0.768-0.304-2.432-0.768-4.224
	C 355.968,299.632, 356.336,300.048, 355.632,301.904z M 314.464,336.032c-3.776,0.976, 3.888,2.096, 4.224,3.056c-1.28,0-2.16,1.328-1.664,2.448
	c 0.576,1.328, 1.52-1.584, 2.832-0.928c 1.552,0.16, 4.608,2.48, 3.040-2c-1.6-4.544-3.056-7.872-8.816-7.952
	C 312.016,332.736, 314,333.824, 314.464,336.032z M 328.704,351.744c 3.104,0, 0.384-2.304-0.304-2.304c 0.528-0.208-0.096-2.064-0.096-2.672
	c 2.88,0.032, 2.928,1.792, 4.992,2.304c-0.432-2.576-3.312-3.072-0.496-5.28c 1.488-1.168, 3.008-2.544, 2.416-4.32
	c 3.664,0, 4.208-3.52, 3.456-7.664c 2.032,0, 1.936-0.096, 1.936,1.936c 1.968-0.544, 1.824-2.32,0-2.32
	c-1.824-3.6-6.608-3.44-10-3.44c-0.032,2.784-0.56,2.96-3.136,2.176c-3.52-1.072-0.768,2.8-0.704,4.72
	c 0.384,0, 7.984-0.352, 3.456,1.152c-0.24,4.128-1.168,5.36-4.992,5.36c0,2.816-0.992,2.608-1.456,5.696
	C 323.12,351.648, 327.344,346.768, 328.704,351.744z M 327.536,326.832c0-0.944-1.92-1.696-2.304-0.368c 0.368-0.128, 0.512,0, 0.368,0.368
	C 326.256,326.832, 326.912,326.832, 327.536,326.832z M 296,368l-16,0 C 275.584,368, 272,371.584, 272,376C 272,380.416, 275.584,384, 280,384l 16,0 
	C 300.416,384, 304,380.416, 304,376C 304,371.584, 300.416,368, 296,368z M 202.784,226.4c 0.896,0, 1.936-0.352, 1.936-1.152
	C 203.552,225.248, 202.048,224.144, 202.784,226.4z M 188.192,225.616c-0.64-1.216-5.824-1.008-6.544,0.4c 1.92,0, 3.408-0.784, 5.376,0
	c0,1.056-0.88,1.904-1.536,3.056c 2.096,0, 4.448-1.6, 7.312-1.536c0,1.776-0.784-0.384,0,1.92c 1.2-0.304, 4.096-3.056, 4.224-4.208
	C 192.816,225.696, 192.624,225.616, 188.192,225.616z M 171.264,234.816c-1.968,0-5.76,1.712-6.928,3.456c 1.904-0.080, 3.792-0.864, 4.992,1.152
	c 4.88-0.496, 5.312-3.856, 9.232-3.856c 0.736-1.296, 4.928-4.272, 0.88-4.656C 176.384,230.624, 172.544,232.288, 171.264,234.816z
	 M 174.336,224.080c-1.424,0-3.776-0.624-2.688,2.32C 173.536,226.144, 174.432,225.36, 174.336,224.080z M 177.024,224.464
	c-0.768-0.128-1.536-0.256-2.304-0.384C 174.944,225.856, 176.624,227.84, 177.024,224.464z M 191.248,207.616
	c-0.304-1.072-0.256-1.136-1.52-1.136c 0.128,0.496, 0.24,0.992, 0.368,1.52C 190.496,207.872, 190.864,207.744, 191.248,207.616z
	 M 156.64,239.424c 0.368-0.128, 0.768-0.272, 1.152-0.384c 0.496-1.904, 1.536-0.96, 2.688-0.384C 160.48,236.432, 155.328,235.792, 156.64,239.424z"  />
<glyph unicode="&#xe013;" d="M 480,96c0,0-132,0-160,0s 32-96, 32-96c0-17.664-14.336-32-32-32l-128,0 c-17.664,0-32,14.336-32,32
	c0,0, 60.992,96, 32,96S 32,96, 32,96c-17.664,0-32,14.336-32,32L0,448 c0,17.664, 14.336,32, 32,32l 448,0 c 17.664,0, 32-14.336, 32-32l0-320 C 512,110.336, 497.664,96, 480,96z
	 M 256,112c 17.664,0, 32,14.336, 32,32s-14.336,32-32,32s-32-14.336-32-32S 238.336,112, 256,112z M 480,416c0,17.664-14.336,32-32,32L 64,448 C 46.336,448, 32,433.664, 32,416l0-192 
	c0-17.664, 14.336-32, 32-32l 384,0 c 17.664,0, 32,14.336, 32,32L 480,416 z"  />
<glyph unicode="&#xe014;" d="M 352,480L 160,480 C 124.656,480, 96,451.344, 96,416l0-384 c0-35.344, 28.656-64, 64-64l 192,0 c 35.344,0, 64,28.656, 64,64L 416,416 
			C 416,451.344, 387.344,480, 352,480z M 264,432l 48,0 C 316.4,432, 320,428.416, 320,424C 320,419.584, 316.4,416, 312,416l-48,0 C 259.584,416, 256,419.584, 256,424
			C 256,428.416, 259.584,432, 264,432z M 208,448c 8.832,0, 16-7.168, 16-16s-7.168-16-16-16s-16,7.168-16,16S 199.168,448, 208,448z M 288,16c0-8.848-7.152-16-16-16l-32,0 
			c-8.832,0-16,7.152-16,16l0,32 c0,8.848, 7.168,16, 16,16l 32,0 c 8.848,0, 16-7.152, 16-16L 288,16 z M 384,112c0-8.848-7.152-16-16-16L 144,96 c-8.832,0-16,7.152-16,16L 128,368 
			c0,8.832, 7.168,16, 16,16l 224,0 c 8.848,0, 16-7.168, 16-16L 384,112 z"  />
<glyph unicode="&#xe015;" d="M 256.224,126.688c-0.592,0-1.184,0-1.776,0c-140.512,0-254.16,34.128-254.192,60.336
	l-0.256,102.928c0,0.16, 0.064,0.304, 0.064,0.432c 23.136-10.976, 50.32-16.032, 66.576-19.056c 50.512-9.392, 117.232-14.576, 187.808-14.576l 1.776,0 
	c 71.024,0.080, 138.128,5.392, 189.008,14.944c 16.272,3.056, 43.36,8.144, 66.512,19.056c0-0.048,0-0.144,0-0.144l 0.272-102.928
	C 512.048,161.36, 397.568,126.88, 256.224,126.688z M 256.224,287.744c-0.592,0-1.184,0-1.776,0c-140.512,0-254.16,31.136-254.192,57.344
	l-0.256,86.944C-0.048,458.336, 114.496,479.824, 255.84,480c 0.624,0, 1.216,0, 1.84,0c 140.464,0, 254.032-21.12, 254.064-47.328l 0.272-86.944
	C 512.048,319.424, 397.568,287.936, 256.224,287.744z M 254.432,95.68l 1.776,0 c 71.024,0.096, 138.144,8.384, 189.008,17.936
	c 16.272,3.056, 43.36,8.144, 66.528,19.072l 0.256-116.736c 0.032-26.32-114.448-47.792-255.792-47.968c-0.608,0-1.184,0-1.808,0
	c-140.48,0-254.128,21.12-254.16,47.312L0,132.336c 23.136-10.992, 50.336-16.048, 66.624-19.072C 117.136,103.856, 183.84,95.68, 254.432,95.68z"  />
<glyph unicode="&#xe017;" d="M 329.072,278.857l0-36.572 q0-63.143 -42.143-109.857t-104.143-53.572l0-37.715 l 73.143,0 q 7.428,0 12.857-5.428t 5.428-12.857t-5.428-12.857t-12.857-5.428l-182.857,0 q-7.428,0 -12.857,5.428t-5.428,12.857t 5.428,12.857t 12.857,5.428l 73.143,0 l0,37.715 q-62,6.857 -104.143,53.572t-42.143,109.857l0,36.572 q0,7.428 5.428,12.857t 12.857,5.428t 12.857-5.428t 5.428-12.857l0-36.572 q0-52.857 37.572-90.428t 90.428-37.572 t 90.428,37.572t 37.572,90.428l0,36.572 q0,7.428 5.428,12.857t 12.857,5.428t 12.857-5.428t 5.428-12.857zM 255.929,388.572l0-146.286 q0-37.715 -26.857-64.572t-64.572-26.857t-64.572,26.857t-26.857,64.572l0,146.286 q0,37.715 26.857,64.572t 64.572,26.857t 64.572-26.857t 26.857-64.572z" horiz-adv-x="329"  />
<glyph unicode="&#xf0a1;" d="M 475.428,297.143q 15.143,0 25.857-10.714t 10.714-25.857t-10.714-25.857t-25.857-10.714l0-109.715 q0-14.857 -10.857-25.715t-25.715-10.857q-119.143,99.143 -232,108.572q-16.572-5.428 -26-18.857t-8.857-28.715t 11.428-26.428q-5.715-9.428 -6.572-18.715t 1.714-16.572t 9.572-15.714t 13.714-14.286t 17.572-14.428q-8.286-16.572 -31.857-23.715t-48.143-3.285t-37.715,15.857q-2,6.572 -8.428,25 t-9.143,27t-6.572,25.428t-4.285,28.857t 1,28.143t 6.285,31.572l-34.857,0 q-18.857,0 -32.285,13.428t-13.428,32.285l0,54.857 q0,18.857 13.428,32.285t 32.285,13.428l 137.143,0 q 124.285,0 256,109.715q 14.857,0 25.715-10.857t 10.857-25.715l0-109.715 zM 438.857,124.572l0,272.572 q-112.572-86.285 -219.429-98l0-77.143 q 107.715-12 219.429-97.428z"  />
<glyph unicode="&#xe016;" d="M 501.066,322.879l-50.553,50.552c-12.396,12.397-32.685,32.684-45.081,45.082l-50.553,50.552
	c-12.396,12.397-34.477,14.583-49.065,4.858L 167.595,381.777c-14.588-9.726-20.109-30.514-12.268-46.195l 35.243-70.487
	c 1.077-2.153, 2.323-4.448, 3.695-6.83L 16,80L0-32l 96,0 l0,32 l 64,0 l0,64 l 64,0 l0,64l 64,0 l0,35.593 c 3.198-1.906, 6.267-3.608, 9.096-5.022
	l 70.485-35.244c 15.683-7.841, 36.47-2.319, 46.195,12.269l 92.147,138.22C 515.65,288.402, 513.462,310.481, 501.066,322.879z
	 M 75.314,52.687l-22.627,22.627l 155.786,155.785l 22.627-22.627L 75.314,52.687z M 458.51,268.118l-22.628-22.628
	c-6.223-6.222-16.404-6.222-22.627,0L 277.49,381.255c-6.223,6.222-6.223,16.405,0,22.627l 22.628,22.628
	c 6.223,6.222, 16.404,6.222, 22.627,0L 458.51,290.745C 464.733,284.523, 464.733,274.34, 458.51,268.118z"  />
<glyph unicode="&#xe018;" d="M 256,480C 114.624,480,0,365.376,0,224s 114.624-256, 256-256s 256,114.624, 256,256S 397.376,480, 256,480z M 216.32,105.872
		L 98.528,223.68l 45.248,45.248l 72.528-72.56l 153.872,153.872l 45.248-45.248L 216.32,105.872z"  />
<glyph unicode="&#xe019;" d="M 512,265.372c0,100.463-29.396,181.969-65.741,182.613c 0.146,0.003, 0.289,0.015, 0.436,0.015l-41.471,0 
	c0,0-97.4-73.168-237.615-101.877c-4.28-22.646-7.015-49.637-7.015-80.751c0-31.114, 2.733-58.104, 7.015-80.75
	c 140.214-28.709, 237.615-101.878, 237.615-101.878l 41.471,0 c-0.146,0-0.289,0.012-0.436,0.016C 482.607,83.404, 512,164.909, 512,265.372
	z M 432.412,110.374c-4.691,0-9.766,4.871-12.373,7.774c-6.315,7.032-12.396,17.98-17.594,31.664
	c-11.628,30.616-18.033,71.655-18.033,115.562c0,43.905, 6.405,84.945, 18.033,115.561c 5.197,13.684, 11.281,24.633, 17.594,31.664
	c 2.607,2.906, 7.682,7.776, 12.373,7.776c 4.69,0, 9.768-4.872, 12.372-7.776c 6.317-7.032, 12.398-17.979, 17.594-31.664
	c 11.629-30.615, 18.034-71.656, 18.034-115.561c0-43.902-6.405-84.944-18.034-115.562c-5.195-13.684-11.281-24.632-17.594-31.664
	C 442.18,115.245, 437.104,110.374, 432.412,110.374z M 125.906,265.372c0,25.975, 1.905,51.215, 5.526,74.547
	c-23.686-3.277-44.471-5.162-70.17-5.162c-33.529,0-33.529,0-33.529,0L0,287.414l0-44.085 l 27.73-47.343c0,0,0,0, 33.53,0
	c 25.699,0, 46.484-1.887, 70.17-5.162C 127.812,214.156, 125.906,239.397, 125.906,265.372z M 184.075,158.914l-63.999,12.255
	l 40.921-160.772c 2.118-8.317, 10.372-12.519, 18.343-9.327l 59.278,23.726c 7.972,3.188, 11.164,11.982, 7.098,19.542L 184.075,158.914zM 432.412,205.635c-1.809,0-3.764,1.877-4.769,2.996c-2.435,2.71-4.778,6.93-6.781,12.204
	c-4.481,11.8-6.95,27.617-6.95,44.539c0,16.922, 2.469,32.739, 6.95,44.539c 2.003,5.274, 4.348,9.494, 6.781,12.204
	c 1.005,1.12, 2.96,2.997, 4.769,2.997c 1.808,0, 3.765-1.878, 4.769-2.997c 2.435-2.71, 4.778-6.929, 6.78-12.204
	c 4.482-11.799, 6.951-27.617, 6.951-44.539c0-16.921-2.469-32.739-6.951-44.539c-2.002-5.274-4.348-9.494-6.78-12.204
	C 436.177,207.512, 434.221,205.635, 432.412,205.635z"  />
<glyph unicode="&#xf16b;" d="M 114.857,278l 141.143-87.143l-97.715-81.428l-140,91.143zM 396.572,119.428l0-30.857 l-140-83.715l0-0.285 l-0.285,0.285l-0.285-0.285l0,0.285 l-139.714,83.715l0,30.857 l 42-27.428l 97.715,81.143l0,0.572 l 0.285-0.285l 0.285,0.285l0-0.572 l 98-81.143zM 158.286,446.285l 97.715-81.428l-141.143-86.857l-96.572,77.143zM 397.143,278l 96.572-77.428l-139.714-91.143l-98,81.428zM 354,446.285l 139.714-91.143l-96.572-77.143l-141.143,86.857z"  />
<glyph unicode="&#xf17d;" d="M 292.143,51.428q-12,68.857 -40,142.286l-0.572,0 l-0.572-0.285q-4.572-1.714 -12.286-4.715t-28.857-14t-39.143-23.428t-37.428-32.715t-29.428-42.285l-4.285,3.143q 52.572-42.857 119.428-42.857q 37.715,0 73.143,14.857zM 239.286,224.857q-6,14 -15.143,31.715q-88.857-26.572 -192.286-26.572q-0.285-2 -0.285-6q0-35.428 12.572-67.572t 35.428-57.572q 14.286,25.428 35.285,47.572t 40.715,35.572t 37.285,23.143 t 28.428,13.714l 10.572,3.715q 1.143,0.285 3.715,1t 3.715,1.286zM 208.714,285.429q-34.285,60.857 -69.715,108q-39.428-18.572 -66.857-53.143t-36.572-77.715q 86.285,0 173.143,22.857zM 404.143,194.286q-60,17.143 -116.857,8.286q 24.857-68.285 36.572-134q 31.715,21.428 52.857,54.143t 27.428,71.572zM 174.143,406q-0.285,0 -0.572-0.285q 0.285,0.285 0.572,0.285zM 342.714,364.572q-52.857,46.857 -123.715,46.857q-21.715,0 -44.285-5.428 q 37.428-48.572 70.285-109.143q 19.715,7.428 37.143,17.285t 27.572,17.572t 18.715,16.285t 10.714,11.572zM 406.428,226q-0.857,66.285 -42.572,117.143l-0.285-0.285q-2.571-3.429 -5.428-7t-12.428-12.714t-20.285-17.285t-28.572-18.572t-37.572-18.428q 7.143-15.143 12.572-27.143q 0.572-1.714 1.857-5t 2.143-4.715q 10.286,1.429 21.285,2t 21,0.572t 19.715-0.428t 18.285-1.143t 16.143-1.571t 13.714-1.857t 10.428-1.714 t 7.143-1.286zM 438.428,224q0-59.715 -29.428-110.143t-79.857-79.857t-110.143-29.428t-110.143,29.428t-79.857,79.857t-29.428,110.143t 29.428,110.143t 79.857,79.857t 110.143,29.428t 110.143-29.428t 79.857-79.857t 29.428-110.143z" horiz-adv-x="438"  />
<glyph unicode="&#xf17e;" d="M 334.714,176.286q0,14.286 -5.572,26.143t-13.857,19.572t-20.857,14t-23.572,9.714t-25,6.572l-29.715,6.857q-8.572,2 -12.572,3t-10,3.285t-8.572,4.572t-4.715,6t-2.143,8.572q0,22 41.143,22q 12.286,0 22-3.429t 15.428-8.143t 10.857-9.572t 11.428-8.286t 13.714-3.429q 13.428,0 21.572,9.143t 8.143,22q0,15.714 -16,28.428t-40.572,19.285t-52,6.572q-19.428,0 -37.715-4.428 t-34.143-13.428t-25.428-24.857t-9.572-36.715q0-17.428 5.428-30.428t 16-21.572t 22.857-13.857t 29.428-9.286l 41.715-10.286q 25.715-6.285 32-10.286q 9.143-5.715 9.143-17.143q0-11.143 -11.428-18.428t-30-7.285q-14.572,0 -26.143,4.572t-18.572,11t-13,12.857t-13.143,11t-15.428,4.572q-14.286,0 -21.572-8.572t-7.285-21.428q0-26.285 34.857-45t 83.143-18.715 q 20.857,0 40,5.285t 35,15.286t 25.285,26.715t 9.428,37.572zM 438.428,114.286q0-45.428 -32.143-77.572t-77.572-32.143q-37.143,0 -66.857,22.857q-22-4.572 -42.857-4.572q-40.857,0 -78.143,15.857t-64.285,42.857t-42.857,64.285t-15.857,78.143q0,20.857 4.572,42.857q-22.857,29.715 -22.857,66.857q0,45.428 32.143,77.572t 77.572,32.143q 37.143,0 66.857-22.857 q 22,4.572 42.857,4.572q 40.857,0 78.143-15.857t 64.285-42.857t 42.857-64.285t 15.857-78.143q0-20.857 -4.572-42.857q 22.857-29.715 22.857-66.857z" horiz-adv-x="438"  />
<glyph unicode="&#xf0e0;" d="M 41.849,328.892c-12.927,0-23.408-10.487-23.408-23.414l0-163.858 
			c0-12.927, 10.482-23.414, 23.408-23.414c 12.933,0, 23.408,10.487, 23.408,23.414L 65.256,305.478 C 65.262,318.405, 54.781,328.892, 41.849,328.892z
			 M 88.892,138.035l 37.252-20.796l0-92.672 c0-25.854, 20.957-46.822, 46.817-46.822l 210.685,0 c 25.854,0, 46.817,20.963, 46.817,46.822l0,24.914 l 85.741-26.232
			l0,397.584 L 88.892,307.245L 88.892,138.035 z M 149.553,112.027l 257.502-57.325l0-30.127 c0-12.927-10.487-23.408-23.414-23.408l-210.685,0 
			c-12.927,0-23.408,10.482-23.408,23.408L 149.548,112.027 z M 573.931,469.341c-19.385,0-35.113-15.716-35.113-35.107l0-421.372 
			c0-19.39, 15.727-35.113, 35.113-35.113c 19.396,0, 35.113,15.722, 35.113,35.113L 609.043,434.235 C 609.049,453.625, 593.332,469.341, 573.931,469.341z" horiz-adv-x="628"  />
<glyph unicode="&#xf03e;" d="M 182.666,315.334q0-22.833 -15.983-38.817t-38.817-15.983t-38.817,15.983t-15.983,38.817t 15.983,38.817t 38.817,15.983t 38.817-15.983t 15.983-38.817zM 474.933,205.733l0-127.867 l-401.866,0 l0,54.8 l 91.333,91.333l 45.667-45.667l 146.134,146.134zM 502.333,406.667l-456.667,0 q-3.711,0 -6.422-2.712t-2.712-6.422l0-347.066 q0-3.711 2.712-6.422t 6.422-2.712l 456.667,0 q 3.711,0 6.422,2.712t 2.712,6.422l0,347.066  q0,3.711 -2.712,6.422t-6.422,2.712zM 548,397.534l0-347.066 q0-18.838 -13.415-32.253t-32.253-13.415l-456.667,0 q-18.838,0 -32.253,13.415t-13.415,32.253l0,347.066 q0,18.838 13.415,32.253t 32.253,13.415l 456.667,0 q 18.838,0 32.253-13.415t 13.415-32.253z" horiz-adv-x="548"  />
<glyph unicode="&#xe01a;" d="M 467.299,183.607c-17.945,0-32.5-14.56-32.5-32.512s 14.555-32.5, 32.5-32.5
			c 17.957,0, 32.512,14.549, 32.512,32.5S 485.256,183.607, 467.299,183.607z M 476.124,135.729l-17.467,0 c-4.457,0-8.064,3.612-8.064,8.064
			s 3.607,8.059, 8.064,8.059l 17.467,0 c 4.457,0, 8.064-3.607, 8.064-8.059S 480.581,135.729, 476.124,135.729z M 419.688,6.055l-48.372,0 
			c-8.914,0-16.128-6.547-16.128-15.451s 7.219-16.122, 16.128-16.122l 48.372,0 c 8.909,0, 16.122,7.219, 16.122,16.122S 428.591,6.055, 419.688,6.055z
			 M 159.957,183.775c-17.795,0-32.205-14.422-32.205-32.2c0-17.795, 14.411-32.211, 32.205-32.211c 17.79,0, 32.205,14.417, 32.205,32.211
			C 192.168,169.352, 177.746,183.775, 159.957,183.775z M 169.744,135.729L 152.277,135.729 c-4.457,0-8.064,3.612-8.064,8.064s 3.607,8.059, 8.064,8.059l 17.467,0 
			c 4.445,0, 8.064-3.607, 8.064-8.059S 174.189,135.729, 169.744,135.729z M 443.875,200.236l 47.706,0 c 4.451,0, 8.059,3.612, 8.059,8.059
			c0,4.457-3.607,7.391-8.059,7.391l-47.706,0 c-4.451,0-8.064-2.935-8.064-7.391C 435.809,203.848, 439.422,200.236, 443.875,200.236z
			 M 443.875,232.486l 47.706,0 c 4.451,0, 8.059,3.607, 8.059,8.059s-3.607,7.391-8.059,7.391l-47.706,0 c-4.451,0-8.064-2.94-8.064-7.391
			S 439.422,232.486, 443.875,232.486z M 443.875,296.987c 4.451,0, 8.064,3.607, 8.064,8.064c0,4.451-3.612,8.059-8.064,8.059
			s-8.064-3.607-8.064-8.059C 435.809,300.594, 439.422,296.987, 443.875,296.987z M 443.875,264.736l 31.578,0 c 4.457,0, 8.064,3.607, 8.064,8.059
			c0,4.457-3.607,7.397-8.064,7.397l-31.578,0 c-4.451,0-8.064-2.94-8.064-7.397C 435.809,268.343, 439.422,264.736, 443.875,264.736z
			 M 258.43,6.055l-48.377,0 c-8.909,0-16.128-6.547-16.128-15.451s 7.219-16.122, 16.128-16.122l 48.377,0 c 8.904,0, 16.122,7.219, 16.122,16.122
			S 267.338,6.055, 258.43,6.055z M 402.215,103.48l-15.451,0 c-8.909,0-16.122-7.214-16.122-16.128l0-48.372 c0-8.904, 7.219-16.122, 16.122-16.122
			l 15.451,0 c 8.909,0, 16.128,7.225, 16.128,16.122l0,48.372 C 418.342,96.271, 411.123,103.48, 402.215,103.48z M 185.865,296.987
			c 4.451,0, 8.064,3.607, 8.064,8.064c0,4.451-3.607,8.059-8.064,8.059s-8.064-3.607-8.064-8.059
			C 177.807,300.594, 181.415,296.987, 185.865,296.987z M 225.513,103.48c-8.909,0-16.128-7.214-16.128-16.128l0-48.372 
			c0-8.904, 7.219-16.122, 16.128-16.122l 15.451,0 c 8.909,0, 16.128,7.225, 16.128,16.122l0,48.372 c0,8.914-7.219,16.128-16.128,16.128L 225.513,103.48 z
			 M 153.621,264.736l 32.25,0 c 4.451,0, 8.064,3.607, 8.064,8.059c0,4.457-3.607,7.397-8.064,7.397l-32.25,0 c-4.457,0-8.064-2.94-8.064-7.397
			C 145.557,268.343, 149.163,264.736, 153.621,264.736z M 185.193,215.686L 137.493,215.686 c-4.451,0-8.064-2.935-8.064-7.391c0-4.445, 3.607-8.059, 8.064-8.059
			l 47.701,0 c 4.451,0, 8.064,3.612, 8.064,8.059C 193.257,212.752, 189.651,215.686, 185.193,215.686z M 185.193,247.942L 137.493,247.942 
			c-4.451,0-8.064-2.94-8.064-7.391s 3.607-8.059, 8.064-8.059l 47.701,0 c0,0, 8.064,3.607, 8.064,8.059S 189.651,247.942, 185.193,247.942z
			 M 233.571,119.613l 160.585,0 c 17.806,0, 32.256,14.433, 32.256,32.244L 426.412,280.858 c0,17.812-14.449,31.578-32.256,31.578L 233.571,312.436 
			c-17.806,0-32.244-13.766-32.244-31.578l0-129.006 C 201.327,134.040, 215.765,119.613, 233.571,119.613z M 241.636,329.243l 144.462,0 
			c 8.904,0, 16.117,7.214, 16.117,16.122L 402.215,458.238 c0,8.909-7.219,16.122-16.117,16.122L 241.636,474.36 c-8.909,0-16.122-7.219-16.122-16.122l0-112.879 
			C 225.513,336.451, 232.727,329.243, 241.636,329.243z M 274.558,344.693L 257.091,344.693 l0,16.795 l 17.467,0 L 274.558,344.693 z M 274.058,392.064
			c-9.187,0-16.633,7.447-16.633,16.623c0,9.187, 7.447,16.639, 16.633,16.639c 9.181,0, 16.628-7.452, 16.628-16.639
			C 290.692,399.511, 283.239,392.064, 274.058,392.064z M 306.809,344.693l-17.467,0 l0,16.795 l 17.467,0 L 306.809,344.693 z M 338.387,344.693l-16.795,0 l0,16.795 l 16.795,0 
			L 338.387,344.693 z M 371.315,344.693l-17.472,0 l0,16.795 l 17.472,0 L 371.315,344.693 z M 354.509,392.398c-9.27,0-16.789,7.519-16.789,16.795
			c0,9.27, 7.525,16.795, 16.789,16.795c 9.282,0, 16.801-7.525, 16.801-16.795C 371.315,399.912, 363.789,392.398, 354.509,392.398z M 386.099,458.238
			l0-16.128 L 322.931,442.11 l0-48.872 l-17.806,0 L 305.125,442.11 L 240.963,442.11 l-0.34,16.128L 386.099,458.238 z" horiz-adv-x="628"  />
<glyph unicode="&#xe01b;" d="M 65.813,16.126c0-23.374, 28.877-38.209, 56.843-38.209l 392.639,0 
			c 27.983,0, 46.544,14.833, 46.544,38.209l0,54.952 L 65.813,71.078 L 65.813,16.126 z M 439.004,357.886C 436.844,418.268, 394.835,461.279, 336.631,470.631l-45.594-0.34
			C 233.566,460.083, 190.884,417.518, 188.667,357.886L 65.813,357.886 l0-266.783 l 496.026,0 L 561.838,357.886 L 439.004,357.886 z M 223.095,357.886
			c 4.49,43.649, 46.745,80.445, 90.971,80.445l 1.79,0 c 44.227,0, 84.469-36.791, 88.731-80.445L 223.095,357.886 z" horiz-adv-x="628"  />
<glyph unicode="&#xe01c;" d="M 444.735,114.4l-43.576,0 l0-43.576 l 43.576,0 L 444.735,114.4 z M 444.735,187.031l-43.576,0 l0-43.576 l 43.576,0 
			L 444.735,187.031 z M 372.115,259.651l-43.582,0 l0-43.576 l 43.582,0 L 372.115,259.651 z M 444.735,259.651l-43.576,0 l0-43.576 l 43.576,0 L 444.735,259.651 z M 400.708,346.804
			c 15.794,0, 28.599,12.805, 28.599,28.599l0,29.961 c0,15.794-12.81,28.599-28.599,28.599s-28.593-12.805-28.593-28.599l0-29.961 
			C 372.115,359.604, 384.915,346.804, 400.708,346.804z M 226.409,346.804c 15.794,0, 28.599,12.805, 28.599,28.599l0,29.961 
			c0,15.794-12.805,28.599-28.599,28.599s-28.599-12.805-28.599-28.599l0-29.961 C 197.809,359.604, 210.613,346.804, 226.409,346.804z M 372.115,187.031
			l-43.582,0 l0-43.576 l 43.582,0 L 372.115,187.031 z M 473.79,390.375l-29.055,0 l0-14.522 c0-24.065-19.512-43.576-43.576-43.576s-43.576,19.512-43.576,43.576l0,14.522 L 270.441,390.375 
			l0-14.522 c0-24.065-19.512-43.576-43.576-43.576c-24.065,0-43.571,19.512-43.571,43.576l0,14.522 l-29.055,0 c-16.045,0-29.050-13.005-29.050-29.055l0-319.553 
			c0-16.045, 13.005-29.050, 29.050-29.050l 319.558,0 c 16.045,0, 29.050,13.005, 29.050,29.050L 502.845,361.326 C 502.84,377.377, 489.834,390.375, 473.79,390.375z
			 M 473.79,41.774l-319.558,0 L 154.233,288.706 l 319.558,0 L 473.79,41.774 z M 372.115,114.4l-43.582,0 l0-43.576 l 43.582,0 L 372.115,114.4 z M 226.857,114.4l-43.571,0 l0-43.576 l 43.571,0 L 226.857,114.4 z
			 M 226.857,259.651l-43.571,0 l0-43.576 l 43.571,0 L 226.857,259.651 z M 226.857,187.031l-43.571,0 l0-43.576 l 43.571,0 L 226.857,187.031 z M 299.49,259.651l-43.576,0 l0-43.576 l 43.576,0 L 299.49,259.651 z
			 M 299.49,114.4l-43.576,0 l0-43.576 l 43.576,0 L 299.49,114.4 z M 299.49,187.031l-43.576,0 l0-43.576 l 43.576,0 L 299.49,187.031 z" horiz-adv-x="628"  />
<glyph unicode="&#xe01d;" d="M 129.057,108.719c-0.539,0.561-1.434,0.579-1.99,0.039
			c0,0-23.892-19.473-25.842-34.129c-2.39-12.944, 14.25-26.104, 14.25-26.104l-47.25-47.75c-0.561-0.545-0.579-1.434-0.034-1.99l 21.591-23.103
			c 0.539-0.561, 1.428-0.579, 1.99-0.034l 48.639,47.271c0,0, 16.039-16.69, 30.233-12.966c 8.408,2.206, 29.732,26.059, 29.732,26.059
			c 0.561,0.539, 0.573,1.434, 0.034,1.99L 129.057,108.719z M 152.742,160.099c-6.614,6.53-17.273,6.458-23.803-0.156l-1.339-1.356
			c-6.524-6.614-6.458-17.267, 0.162-23.798l 98.502-97.252c 6.614-6.53, 17.273-6.458, 23.803,0.156l 1.339,1.356
			c 6.524,6.614, 6.458,17.273-0.162,23.798L 152.742,160.099z M 552.312,378.616c-10.31,10.076-23.508,10.031-36.958-0.144L 444.896,310.103
			l-48.478,48.179L 465.737,427.060c 10.226,10.304, 10.159,26.638-0.144,37.068c-10.304,10.426-26.732,9.953-37.030-0.206
			c 0.15,0-70.091-67.924-70.091-67.924l-53.13,52.807c-10.276,10.192-26.866,10.131-37.063-0.139c-10.192-10.276-10.131-26.871, 0.139-37.063
			l 234.112-230.809c 10.27-10.198, 26.866-10.131, 37.057,0.139c 10.198,10.276, 10.137,26.866-0.139,37.063l-54.824,52.635l 67.84,70.882
			C 562.682,351.523, 562.61,368.54, 552.312,378.616z M 266.028,390.598c-1.807,1.857-4.779,1.895-6.636,0.089
			c0,0-85.909-79.872-93.944-101.58C 157.406,267.399, 152.36,191.21, 152.36,191.21s-0.573-4.924, 1.239-6.78l 120.954-122.61
			c 1.812-1.857, 7.519-0.962, 7.519-0.962s 74.187,5.408, 105.365,20.196c 23.408,15.333, 93.688,86.803, 93.688,86.803
			c 1.857,1.812, 1.901,4.779, 0.089,6.636L 266.028,390.598z" horiz-adv-x="628"  />
<glyph unicode="&#xe01e;" d="M 554.712,452.626L 73.438,452.626 c-23.114,0-41.849-18.735-41.849-41.849l0-292.954 
			c0-23.109, 18.74-41.849, 41.849-41.849l 481.271,0 c 23.12,0, 41.854,18.74, 41.854,41.849L 596.561,410.772 C 596.567,433.891, 577.833,452.626, 554.712,452.626z
			 M 311.46,107.365c-11.56,0-20.924,9.37-20.924,20.929c0,11.554, 9.37,20.924, 20.924,20.924c 11.56,0, 20.929-9.37, 20.929-20.924
			C 332.389,116.728, 323.020,107.365, 311.46,107.365z M 554.712,180.595L 73.438,180.595 L 73.438,410.772 l 481.271,0 L 554.707,180.595 z M 345.466,58.057L 282.689,58.057 l0-32.695 
			l-62.772-10.465l0-20.924 l 187.016,0 L 406.933,13.592 l-61.467,11.771L 345.466,58.057 z" horiz-adv-x="628"  />
<glyph unicode="&#xe01f;" d="M 345.466,58.057L 282.689,58.057 l0-32.695 l-62.772-10.465l0-20.924 l 187.016,0 L 406.933,13.592 l-61.467,11.771
			L 345.466,58.057 z M 554.712,452.626L 73.438,452.626 c-23.114,0-41.849-18.735-41.849-41.849l0-292.954 c0-23.109, 18.74-41.849, 41.849-41.849l 481.271,0 
			c 23.12,0, 41.854,18.74, 41.854,41.849L 596.561,410.772 C 596.567,433.891, 577.833,452.626, 554.712,452.626z M 311.46,107.365
			c-11.56,0-20.924,9.37-20.924,20.929c0,11.554, 9.37,20.924, 20.924,20.924c 11.56,0, 20.929-9.37, 20.929-20.924
			C 332.389,116.728, 323.020,107.365, 311.46,107.365z M 554.712,180.595L 73.438,180.595 L 73.438,410.772 l 481.271,0 L 554.707,180.595 z M 258.13,210.917
			c 1.112-0.522, 2.301-0.777, 3.479-0.777c 1.884,0, 3.752,0.649, 5.252,1.906l 127.123,79.173c 1.874,1.557, 2.952,3.868, 2.952,6.303
			c0,2.434-1.078,4.746-2.952,6.308L 266.867,382.995c-2.445,2.040-5.851,2.473-8.731,1.128c-2.885-1.35-4.724-4.252-4.724-7.43l0-158.35 
			C 253.406,215.158, 255.247,212.268, 258.13,210.917z" horiz-adv-x="628"  />
<glyph unicode="&#xe020;" d="M 616.562,98.305c0,2.579-2.117,4.712-4.695,4.712l-52.185,0 L 559.681,374.314 
			c0,11.46-9.326,20.785-20.78,20.785L 88.92,395.099 c-11.444,0-20.768-9.331-20.768-20.785L 68.153,103.012 L 15.989,103.012 c-2.596,0-4.712-2.133-4.712-4.712
			c0,0-0.666-11.076,0-14.705c 2.311-12.571, 28.044-32.077, 58.848-32.077l 487.556,0 c 30.827,0, 56.558,19.512, 58.882,32.077
			C 617.225,87.229, 616.562,98.305, 616.562,98.305z M 366.863,73.336L 261.126,73.336 c-5.141,0-9.326,4.191-9.326,9.309
			c0,0.683, 0.078,1.339, 0.206,1.972l 123.949,0 c 0.144-0.633, 0.206-1.289, 0.206-1.972C 376.167,77.525, 371.999,73.336, 366.863,73.336z
			 M 516.038,103.012L 112.557,103.012 L 112.557,358.019 l 403.482,0 L 516.038,103.012 z" horiz-adv-x="628"  />
<glyph unicode="&#xe021;" d="M 512,277.143l0-226.857 q0-18.857 -13.428-32.285t-32.285-13.428l-420.572,0 q-18.857,0 -32.285,13.428t-13.428,32.285l0,226.857 q 12.572-14 28.857-24.857q 103.428-70.285 142-98.572q 16.285-12 26.428-18.715t 27-13.714t 31.428-7l 0.285,0 l 0.285,0 q 14.572,0 31.428,7t 27,13.714t 26.428,18.715q 48.572,35.143 142.286,98.572q 16.285,11.143 28.572,24.857zM 512,361.143q0-22.572 -14-43.143t-34.857-35.143 q-107.428-74.572 -133.714-92.857q-2.857-2 -12.143-8.714t-15.428-10.857t-14.857-9.286t-16.428-7.715t-14.286-2.571l-0.285,0 l-0.285,0 q-6.572,0 -14.286,2.571t-16.428,7.715t-14.857,9.286t-15.428,10.857t-12.143,8.714q-26,18.285 -74.857,52.143t-58.572,40.715q-17.715,12 -33.428,33t-15.714,39q0,22.285 11.857,37.143t 33.857,14.857l 420.572,0 q 18.572,0 32.143-13.428t 13.572-32.285z"  />
<glyph unicode="&#xe022;" d="M 572.113,425.326L 55.875,425.326 c-24.792,0-44.893-20.101-44.893-44.893l0-314.239 
			c0-24.786, 20.101-44.888, 44.893-44.888l 516.244,0 c 24.797,0, 44.888,20.101, 44.888,44.888L 617.008,380.427 C 617.002,405.219, 596.911,425.326, 572.113,425.326z
			 M 572.113,65.088L 55.875,65.088 L 55.875,380.427 l 516.244,0 L 572.119,65.088 z M 249.999,121.629c 1.273-0.595, 2.64-0.889, 3.996-0.889c 2.167,0, 4.308,0.75, 6.035,2.189
			l 146.002,90.927c 2.15,1.79, 3.384,4.445, 3.384,7.241c0,2.802-1.239,5.447-3.384,7.241L 260.031,319.273
			c-2.807,2.339-6.719,2.846-10.031,1.289s-5.43-4.874-5.43-8.53l0-181.864 C 244.575,126.51, 246.693,123.181, 249.999,121.629z" horiz-adv-x="628"  />
<glyph unicode="&#xe023;" d="M 486.772,108.542c-7.736,2.073-15.506,2.601-23.042,1.911l-22.925,71.269
			c 44.567,15.412, 80.935,51.952, 94.055,100.925c 21.007,78.406-25.526,159.006-103.936,180.019C 352.513,483.681, 271.919,437.142, 250.906,358.73
			c-13.27-49.529, 0.428-99.907, 32.061-135.609l-29.372-36.753c-10.326,7.787-22.252,13.811-35.519,17.367
			c-55.269,14.805-112.085-17.99-126.895-73.282c-14.811-55.269, 17.99-112.079, 73.265-126.889c 55.281-14.811, 112.085,17.984, 126.895,73.259
			c 8.786,32.795, 0.722,66.062-18.751,90.849l 32.3,35.285c 14.544-10.875, 31.339-19.257, 49.95-24.242c 21.636-5.796, 43.426-6.424, 64.1-2.685
			l 18.735-73.62c-14.983-8.363-26.715-22.514-31.505-40.403c-9.409-35.102, 11.426-71.186, 46.528-80.589c 35.107-9.409, 71.192,11.421, 80.601,46.528
			C 542.708,63.054, 521.878,99.133, 486.772,108.542z M 246.304,88.885c-8.142-30.4-39.386-48.433-69.791-40.293
			c-30.4,8.147-48.439,39.392-40.293,69.791c 8.147,30.411, 39.392,48.45, 69.791,40.304C 236.418,150.54, 254.457,119.296, 246.304,88.885z
			 M 376.794,260.619c-33.185,8.892-52.869,42.988-43.976,76.166c 8.892,33.174, 42.988,52.864, 76.16,43.971c 33.179-8.892, 52.864-42.988, 43.971-76.166
			C 444.062,271.416, 409.968,251.732, 376.794,260.619z M 504.695,35.605c-5.174-19.313-25.015-30.767-44.332-25.588
			c-19.307,5.174-30.767,25.015-25.588,44.327s 25.020,30.772, 44.332,25.593C 498.42,74.757, 509.87,54.912, 504.695,35.605z" horiz-adv-x="628"  />
<glyph unicode="&#xe024;" d="M 384,480L 128,480C 101.472,480, 80,458.512, 80,432l0-416 c0-26.528, 21.488-48, 48-48l 256,0 c 26.496,0, 48,21.504, 48,48L 432,432 C 432,458.528, 410.496,480, 384,480z
		 M 400,16c0-8.816-7.184-16-16-16L 128,0 c-8.832,0-16,7.152-16,16l0,32.064 l 288,0 L 400,16 z M 400,64.064L 112,64.064 L 112,384 L 400,384L 400,64.064 z M 400,400L 112,400L 112,432 c0,8.832, 7.168,16, 16,16
		L 384,448c 8.816,0, 16-7.168, 16-16L 400,400 zM 288,424C 288,419.584, 284.4,416, 280,416l-48,0 C 227.568,416, 224,419.584, 224,424l0,0C 224,428.432, 227.568,432, 232,432l 48,0 
		C 284.4,432, 288,428.432, 288,424L 288,424zM 272,24.064c0-4.4-3.6-8-8-8l-16,0 c-4.416,0-8,3.6-8,8l0,0c0,4.432, 3.584,8, 8,8l 16,0 
		C 268.4,32.064, 272,28.496, 272,24.064L 272,24.064z"  />
<glyph unicode="&#xf099;" d="M 462.643,363.428q-19.143-28 -46.285-47.715q 0.285-4 0.285-12q0-37.143 -10.857-74.143t-33-71t-52.715-60.143t-73.715-41.715t-92.285-15.572q-77.428,0 -141.714,41.428q 10-1.143 22.285-1.143q 64.285,0 114.572,39.428q-30,0.572 -53.715,18.428t-32.572,45.572q 9.428-1.429 17.428-1.429q 12.286,0 24.285,3.143q-32,6.572 -53,31.857t-21,58.715l0,1.143 q 19.428-10.857 41.715-11.714 q-18.857,12.572 -30,32.857t-11.143,44q0,25.143 12.572,46.572q 34.572-42.572 84.143-68.143t 106.143-28.428q-2.285,10.857 -2.285,21.143q0,38.285 27,65.285t 65.285,27q 40,0 67.428-29.143q 31.143,6 58.572,22.285q-10.572-32.857 -40.572-50.857q 26.572,2.857 53.143,14.286z" horiz-adv-x="475"  />
<glyph unicode="&#xf09a;" d="M 145.786,321.143l 73.428,0 l-8.572-81.143l-64.857,0 l0-235.429 l-97.428,0 l0,235.429 l-48.572,0 l0,81.143 l 48.572,0 l0,48.857 q0,52 24.572,78.715t 80.857,26.715l 64.857,0 l0-81.143 l-40.572,0 q-11.143,0 -17.857-1.857t-9.714-6.715t-3.857-9.857t-0.857-14.143l0-40.572 z" horiz-adv-x="219"  />
<glyph unicode="&#xf0e1;" d="M 99.286,301.429l0-283.143 l-94.285,0 l0,283.143 l 94.285,0 zM 105.286,388.857q 0.285-20.857 -14.428-34.857t-38.715-14l-0.572,0 q-23.428,0 -37.715,14t-14.286,34.857q0,21.143 14.714,35t 38.428,13.857t 38-13.857t 14.572-35zM 438.428,180.572l0-162.286 l-94,0 l0,151.429 q0,30 -11.572,47t-36.143,17q-18,0 -30.143-9.857t-18.143-24.428q-3.143-8.572 -3.143-23.143l0-158 l-94,0  q 0.572,114 0.572,184.857t-0.285,84.572l-0.285,13.714l 94,0 l0-41.143 l-0.572,0 q 5.715,9.143 11.714,16t 16.143,14.857t 24.857,12.428t 32.715,4.428q 48.857,0 78.572-32.428t 29.715-95z" horiz-adv-x="438"  />
<glyph unicode="&#xf0d5;" d="M 250.071,61.428q0,6 -1.286,11.572t-2.715,10.286t-5,9.857t-6,8.714t-7.572,8.428t-7.857,7.285t-9.143,7.285t-8.857,6.572t-9.428,6.572t-8.714,6q-4.857,0.572 -14.286,0.572q-15.428,0 -30.285-2t-30.857-7.143t-28-13.143t-19.715-21.428t-7.715-30.572q0-19.428 10.143-34.715t 26.572-24t 34.428-13t 36.285-4.285q 16.857,0 32.143,3.571t 28.715,11.143t 21.285,21 t 7.857,31.428zM 215.786,307.714q0,17.143 -4.715,36.428t-13.428,37.285t-24,29.715t-34.143,11.714q-26.572,0 -41.143-19.715t-14.572-47.143q0-13.428 3.285-28.285t 10.143-29.715t 16-26.715t 22.285-19.285t 27.715-7.428q 27.715,0 40.143,17.285t 12.428,45.857zM 178.357,443.428l 124.857,0 l-38.572-22.572l-38.572,0 q 20.285-12.857 31.428-36t 11.143-48.285q0-21.143 -6.572-37.572t-16-26.428t-18.857-18.428 t-16-17.428t-6.572-19.285q0-7.428 4.715-14.572t 12.286-13.714t 16.715-13.714t 18.285-15.857t 16.715-18.857t 12.286-24.285t 4.715-30.428q0-45.715 -40-80.572q-43.428-37.428 -120-37.428q-16.857,0 -34.143,2.857t-34.857,9.572t-31,16.572t-22,25.428t-8.572,34.715q0,17.428 10.572,38.572q 9.143,18.285 27.428,31.572t 41.428,20.285t 44.285,10.286t 42.857,3.857q-18.285,23.715 -18.285,42.572q0,3.429 0.572,6.715 t 1.429,5.572t 2.285,6.143t 2,6.143q-11.428-1.429 -20-1.429q-42.572,0 -73,28t-30.428,70.285q0,40 27.143,71.572t 66.857,40.428q 26.857,5.715 53.428,5.715zM 475.214,370.285l0-36.572 l-73.143,0 l0-73.143 l-36.572,0 l0,73.143 l-73.143,0 l0,36.572 l 73.143,0 l0,73.143 l 36.572,0 l0-73.143 l 73.143,0 z" horiz-adv-x="475"  />
<glyph unicode="&#xf0d2;" d="M 438.428,224q0-59.715 -29.428-110.143t-79.857-79.857t-110.143-29.428q-31.715,0 -62.285,9.143q 16.857,26.572 22.285,46.857q 2.571,9.714 15.428,60.285q 5.715-11.143 20.857-19.285t 32.572-8.143q 34.572,0 61.715,19.572t 42,53.857t 14.857,77.143q0,32.572 -17,61.143t-49.285,46.572t-72.857,18q-30,0 -56-8.286t-44.143-22t-31.143-31.572t-19.143-37t-6.143-38.285 q0-29.715 11.428-52.285t 33.428-31.715q 8.572-3.429 10.857,5.715q 0.572,2 2.285,8.857t 2.285,8.572q 1.714,6.572 -3.143,12.286q-14.572,17.428 -14.572,43.143q0,43.143 29.857,74.143t 78.143,31q 43.143,0 67.285-23.428t 24.143-60.857q0-48.572 -19.572-82.572t-50.143-34q-17.428,0 -28,12.428t-6.572,29.857q 2.285,10 7.572,26.715t 8.572,29.428t 3.285,21.572q0,14.286 -7.715,23.715t-22,9.428 q-17.715,0 -30-16.285t-12.286-40.572q0-20.857 7.143-34.857l-28.285-119.428q-4.857-20 -3.715-50.572q-58.857,26 -95.143,80.285t-36.285,120.857q0,59.715 29.428,110.143t 79.857,79.857t 110.143,29.428t 110.143-29.428t 79.857-79.857t 29.428-110.143z" horiz-adv-x="438"  />
<glyph unicode="&#xf173;" d="M 111.142,443.428l 62.572,0 l0-110.857 l 104,0 l0-68.857 l-104,0 l0-112.572 q0-38.857 4-49.143q 3.715-10.572 14.857-17.143q 14.286-8.857 33.428-8.857q 33.428,0 66.285,21.715l0-69.143 q-29.143-13.714 -50.857-18.572q-22-5.428 -49.428-5.428q-30,0 -53.143,7.715q-22.285,7.143 -39.428,21.428q-16.572,14.572 -22.572,30q-6.285,15.428 -6.285,46l0,154 l-48.572,0 l0,62 q 26,8.572 44.285,24q 18.285,15.714 29.428,37.715q 11.143,22.285 15.428,56z " horiz-adv-x="292"  />
<glyph unicode="&#xf041;" d="M 219.143,297.143q0,30.285 -21.428,51.715t-51.715,21.428t-51.715-21.428t-21.428-51.715t 21.428-51.715t 51.715-21.428t 51.715,21.428t 21.428,51.715zM 292.286,297.143q0-31.143 -9.428-51.143l-104-221.143q-4.572-9.428 -13.572-14.857t-19.285-5.428t-19.285,5.428t-13.286,14.857l-104.285,221.143q-9.428,20 -9.428,51.143q0,60.572 42.857,103.428t 103.428,42.857t 103.428-42.857t 42.857-103.428z" horiz-adv-x="292"  />
<glyph unicode="&#xf077;" d="M 460.072,132.572q0-15.143 -10.572-25.715l-21.428-21.428q-10.857-10.857 -26-10.857q-15.428,0 -25.715,10.857l-138.857,138.571l-138.857-138.571q-10.286-10.857 -25.715-10.857t-25.715,10.857l-21.428,21.428q-10.857,10.286 -10.857,25.715q0,15.143 10.857,26l 186,186q 10.572,10.572 25.715,10.572q 14.857,0 26-10.572l 185.714-186q 10.857-10.857 10.857-26z" horiz-adv-x="475"  />
<glyph unicode="&#xf078;" d="M 460.072,278.857q0-15.143 -10.572-25.715l-186-186q-10.857-10.857 -26-10.857q-15.428,0 -25.715,10.857l-186,186q-10.857,10.286 -10.857,25.715q0,15.143 10.857,26l 21.143,21.428q 11.143,10.572 26,10.572q 15.143,0 25.715-10.572l 138.857-138.857l 138.857,138.857q 10.572,10.572 25.715,10.572q 14.857,0 26-10.572l 21.428-21.428q 10.572-11.143 10.572-26z" horiz-adv-x="475"  />
<glyph unicode="&#xf167;" d="M 277,124.572l0-60.285 q0-19.143 -11.143-19.143q-6.572,0 -12.857,6.285l0,86 q 6.285,6.285 12.857,6.285q 11.143,0 11.143-19.143zM 373.572,124.286l0-13.143 l-25.715,0 l0,13.143 q0,19.428 12.857,19.428t 12.857-19.428zM 97.572,186.572l 30.572,0 l0,26.857 l-89.143,0 l0-26.857 l 30,0 l0-162.571 l 28.572,0 l0,162.571 zM 179.857,24l 25.428,0 l0,141.143 l-25.428,0 l0-108 q-8.572-12 -16.285-12q-5.143,0 -6,6q-0.285,0.857 -0.285,10l0,104 l-25.428,0 l0-111.715 q0-14 2.285-20.857 q 3.429-10.572 16.572-10.572q 13.714,0 29.143,17.428l0-15.428 zM 302.428,66.286l0,56.285 q0,20.857 -2.571,28.285q-4.857,16 -20.285,16q-14.286,0 -26.572-15.428l0,62 l-25.428,0 l0-189.429 l 25.428,0 l0,13.714 q 12.857-15.714 26.572-15.714q 15.428,0 20.285,15.714q 2.571,7.715 2.571,28.572zM 399,69.143l0,3.715 l-26,0 q0-14.572 -0.572-17.428q-2-10.286 -11.428-10.286q-13.143,0 -13.143,19.715l0,24.857 l 51.143,0 l0,29.428 q0,22.572 -7.715,33.143q-11.143,14.572 -30.285,14.572q-19.428,0 -30.572-14.572 q-8-10.572 -8-33.143l0-49.428 q0-22.572 8.286-33.143q 11.143-14.572 30.857-14.572q 20.572,0 30.857,15.143q 5.143,7.715 6,15.428q 0.572,2.571 0.572,16.572zM 225.286,330l0,60 q0,19.715 -12.286,19.715t-12.286-19.715l0-60 q0-20 12.286-20t 12.286,20zM 430.714,115.428q0-66.857 -7.428-100q-4-16.857 -16.572-28.285t-29.143-13.143q-52.572-6 -158.571-6t-158.571,6q-16.572,1.714 -29.285,13.143t-16.428,28.285 q-7.428,32 -7.428,100q0,66.857 7.428,100q 4,16.857 16.572,28.285t 29.428,13.428q 52.285,5.715 158.286,5.715t 158.571-5.715q 16.572-2 29.285-13.428t 16.428-28.285q 7.428-32 7.428-100zM 145.571,480l 29.143,0 l-34.572-114l0-77.428 l-28.572,0 l0,77.428 q-4,21.143 -17.428,60.572q-10.572,29.428 -18.572,53.428l 30.285,0 l 20.285-75.143zM 251.286,384.857l0-50 q0-23.143 -8-33.715q-10.572-14.572 -30.285-14.572q-19.143,0 -30,14.572 q-8,10.857 -8,33.715l0,50 q0,22.857 8,33.428q 10.857,14.572 30,14.572q 19.715,0 30.285-14.572q 8-10.572 8-33.428zM 347,431.143l0-142.571 l-26,0 l0,15.714 q-15.143-17.715 -29.428-17.715q-13.143,0 -16.857,10.572q-2.285,6.857 -2.285,21.428l0,112.572 l 26,0 l0-104.857 q0-9.428 0.285-10q 0.857-6.285 6-6.285q 7.715,0 16.285,12.286l0,108.857 l 26,0 z" horiz-adv-x="438"  />
<glyph unicode="&#xf168;" d="M 170.429,289.429q-2.857-5.143 -73.428-130.286q-7.715-13.143 -18.572-13.143l-68.285,0 q-6,0 -8.857,4.857t0,10.286l 72.285,128q 0.285,0 0,0.285l-46,79.715q-3.429,6.285 -0.285,10.572q 2.571,4.285 9.143,4.285l 68.285,0 q 11.428,0 18.857-12.857zM 400.714,472.857q 3.143-4.572 0-10.572l-150.857-266.857l0-0.285 l 96-175.714q 3.143-5.715 0.285-10.572q-2.857-4.285 -9.143-4.285l-68.285,0 q-12,0 -18.857,12.857l-96.857,177.714q 5.143,9.143 151.714,269.143 q 7.143,12.857 18.285,12.857l 68.857,0 q 6.285,0 8.857-4.285z" horiz-adv-x="402"  />
<glyph unicode="&#xe025;" d="M 256,480C 167.634,480, 96,408.366, 96,320c0-160, 160-352, 160-352s 160,192, 160,352C 416,408.366, 344.365,480, 256,480z M 256,224
	c-53.020,0-96,42.98-96,96s 42.98,96, 96,96s 96-42.98, 96-96S 309.020,224, 256,224z"  />
<glyph unicode="&#xe026;" d="M 209.702,370.574c 18.829,0, 34.096,15.266, 34.096,34.101L 243.798,440.393 
			c0,18.829-15.266,34.096-34.096,34.096s-34.096-15.266-34.096-34.096l0-35.718 C 175.612,385.84, 190.873,370.574, 209.702,370.574z M 417.521,370.574
			c 18.834,0, 34.101,15.266, 34.101,34.101L 451.621,440.393 c0,18.829-15.266,34.096-34.101,34.096c-18.823,0-34.096-15.266-34.096-34.096l0-35.718 
			C 383.425,385.84, 398.697,370.574, 417.521,370.574z M 257.535,74.885c-8.614-4.501-18.968-4.94-26.165-1.434
			c-4.585,2.234-9.075,5.713-12.049,9.881c-6.753,9.453-8.859,21.207-8.859,21.207l-42.242-5.447c0,0, 5.941-47.189, 44.288-59.027
			c 49.684-15.345, 78.356,5.341, 93.061,22.235c 16.901,19.418, 19.79,51.829, 10.854,69.858c-11.377,22.947-38.103,29.332-38.103,29.332
			s 27.404,13.577, 32.116,40.070c 4.051,22.758-10.92,58.254-48.195,65.935c-80.662,16.623-91.039-59.104-91.039-59.104l 41.698-6.87
			c0,0, 1.818,21.157, 15.294,28.471c 5.613,3.052, 16.089,3.807, 24.198,0.478c 5.33-2.184, 9.232-6.714, 11.482-11.482
			c 6.208-13.144, 1.156-27.21-7.475-33.934c-10.686-8.336-26.315-7.758-26.315-7.758l-4.629-36.513c0,0, 24.73,9.642, 38.708-3.384
			c 16.65-15.522, 13.782-36.518, 7.347-48.389C 268.595,83.644, 263.521,78.010, 257.535,74.885z M 408.756,205.843l0-167.454 l 43.66,0.028L 452.394,269.682
			l-35.096-0.017c0,0-8.959-19.606-25.081-33.923c-16.572-14.716-40.326-24.159-40.326-24.159l-0.056-40.058c0,0, 14.877,4.541, 29.099,13.122
			C 395.168,193.228, 408.756,205.843, 408.756,205.843z M 504.661,422.532l-34.634,0 l0-17.312 c0-28.699-23.263-51.964-51.964-51.964
			c-28.687,0-51.952,23.263-51.952,51.964l0,17.312 L 262.198,422.532 l0-17.312 c0-28.699-23.263-51.964-51.957-51.964s-51.952,23.263-51.952,51.964l0,17.312 L 123.655,422.532 
			c-19.129,0-34.634-15.506-34.634-34.634l0-381.002 c0-19.124, 15.512-34.634, 34.634-34.634l 381.007,0 c 19.124,0, 34.629,15.512, 34.629,34.634L 539.291,387.891 
			C 539.291,407.025, 523.785,422.532, 504.661,422.532z M 504.661,6.896L 123.655,6.896 L 123.655,301.299 l 381.007,0 L 504.661,6.896 z" horiz-adv-x="628"  />
<glyph unicode="&#xe027;" d="M 438.339,376.948L 438.339,464.735 c-183.727,0-190.162-10.093-190.162-160.935L 189.656,303.8 l0-87.765 
			l 58.515,0 l0-234.050 l 102.397,0 L 350.569,216.035 l 87.765,0 L 438.333,303.8 L 350.574,303.8 C 350.574,371.541, 341.504,376.948, 438.339,376.948z" horiz-adv-x="628"  />
<glyph unicode="&#xe028;" d="M 337.813,469.047c-10.875,0-137.304,0-137.304,0S 61.499,465.635, 61.499,347.943
			S 183.032,243.895, 183.032,243.895s0-17.812,0-29.855s 16.306-7.998, 18.328-32.406c-8.213,0-168.871,4.268-168.871-102.331
			c0-106.61, 141.583-101.497, 141.583-101.497s 163.741-7.469, 163.741,124.928c0,79.311-93.389,104.898-93.389,136.882
			s 70.369,41.253, 70.369,116.418c0,45.082-4.168,72.275-39.647,88.271C 275.147,455.492, 337.813,448.146, 337.813,469.047z M 293.692,93.642
			c 2.785-41.337-40.892-77.955-97.573-81.807c-56.681-3.824-104.887,26.56-107.677,67.902c-2.802,41.337, 40.859,77.955, 97.54,81.796
			C 242.664,165.362, 290.886,134.975, 293.692,93.642z M 210.202,272.133c-33.756-9.17-71.548,21.713-84.402,68.985
			c-12.838,47.255, 4.096,93.011, 37.858,102.192c 33.761,9.181, 71.531-21.686, 84.386-68.958C 260.898,327.075, 243.959,281.325, 210.202,272.133z
			 M 499.821,373.475L 499.821,469.081 l-28.132,0 l0-95.601 L 376.183,373.481 l0-28.138 l 95.506,0 l0-95.49 l 28.132,0 L 499.821,345.337 l 95.584,0 l0,28.138 L 499.821,373.475 z" horiz-adv-x="628"  />
<glyph unicode="&#xe029;" d="M 416.458,471.265l-205.129,0 c-28.326,0-51.285-22.959-51.285-51.285l0-391.75 
			c0-28.321, 22.953-52.702, 51.285-52.702l 205.129,0 c 28.326,0, 51.29,22.959, 51.29,51.29L 467.75,419.986 C 467.744,448.306, 444.78,471.265, 416.458,471.265z
			 M 279.705,454.164l 68.38,0 L 348.084,437.075 L 279.705,437.075 L 279.705,454.164 z M 313.889,9.718c-9.442,0-17.094,7.653-17.094,17.084c0,9.442, 7.653,17.1, 17.094,17.1
			c 9.442,0, 17.094-7.659, 17.094-17.1C 330.989,17.371, 323.337,9.718, 313.889,9.718z M 433.554,78.104L 194.235,78.104 L 194.235,419.986 l 239.317,0 L 433.554,78.104 z" horiz-adv-x="628"  />
<glyph unicode="&#xe02a;" d="M 67.118-22.955l 106.643,0 L 173.762,320.139 L 67.118,320.139 L 67.118-22.955 z M 150.253,462.445
			c-8.292,4.669-18.362,7.036-29.816,7.13c-11.576-0.1-21.519-2.462-29.938-7.13c-8.525-4.674-14.949-11.109-19.523-19.19
			c-4.669-8.043-6.786-17.284-6.67-27.699c-0.117-9.936, 1.995-18.941, 6.547-26.915c 4.568-8.043, 10.993-14.372, 19.418-19.157
			c 8.297-4.679, 18.123-7.124, 29.46-7.247c 11.816,0.117, 21.886,2.568, 30.517,7.247c 8.536,4.784, 15.195,11.115, 19.885,19.157
			c 4.674,7.975, 7.030,16.977, 7.124,26.915c-0.217,10.415-2.79,19.656-7.369,27.699C 165.231,451.336, 158.689,457.772, 150.253,462.445z
			 M 554.308,246.119c-6.091,18.578-14.621,33.901-25.738,45.938c-10.993,12.059-23.975,21.057-38.931,27.015c-14.861,5.857-31.127,8.781-48.784,8.781
			c-14.144-0.122-26.994-1.995-38.58-5.502c-11.454-3.495-21.625-8.076-30.406-13.688c-8.881-5.597-16.356-11.576-22.441-17.773
			c-6.202-6.314-10.987-12.154-14.511-17.773l-2.095,0 l-4.913,47.023L 235.289,320.139 c 0.7-15.105, 1.4-31.706, 1.99-49.94
			c 0.462-18.24, 0.822-38.103, 0.822-59.51l0-233.638 l 106.638,0 l0,197.847 c0,5.030, 0.356,9.826, 1.067,14.394c 0.694,4.674, 1.74,8.759, 3.14,12.282
			c 2.345,6.663, 5.851,13.083, 10.526,19.046c 4.812,6.080, 10.765,11.104, 18.012,14.971c 7.124,3.851, 15.662,5.83, 25.487,5.952
			c 12.86-0.122, 23.275-3.273, 31.228-9.448c 7.948-6.202, 13.688-14.855, 17.434-25.976c 3.624-11.109, 5.491-24.081, 5.374-38.936l0-190.134 l 106.654,0 
			L 563.661,180.517 C 563.543,205.771, 560.504,227.634, 554.308,246.119z" horiz-adv-x="628"  />
<glyph unicode="&#xe02b;" d="M 272.062,158.833c 50.796-46.266, 86.597,0, 86.597,0l 259.88,216.671
			c0,43.543-40.81,43.971-40.81,43.971L 49.806,419.474 c-40.947,0-39.226-43.288-39.226-43.288L 272.062,158.833z M 493.836,246.18l 82.769-174.011
			L 466.421,222.604l-86.203-74.082c-34.023-40.831-67.13-35.379-67.13-35.379c-39.464,0-65.318,36.735-65.318,36.735L 162.719,222.777L 53.574,72.769
			l 85.725,170.083L 9.647,353.979l0-283.023 c0-43.543, 40.82-43.543, 40.82-43.543l 525.231,0 c 39.47,0, 43.549,42.175, 43.549,42.175L 619.247,353.979 
			L 493.836,246.18z" horiz-adv-x="628"  />
<glyph unicode="&#xe02c;" d="M 347.778,45.886L 280.383,45.886 l0-35.096 l-67.396-11.232l0-22.464 l 200.787,0 l0,21.057 
			l-65.995,12.638L 347.778,45.886 z M 572.435,469.514L 55.726,469.514 c-24.814,0-44.926-20.118-44.926-44.932l0-314.529 c0-24.814, 20.118-44.932, 44.926-44.932l 516.711,0 
			c 24.82,0, 44.938,20.118, 44.938,44.932L 617.374,424.582 C 617.374,449.396, 597.255,469.514, 572.435,469.514z M 311.271,98.827
			c-12.404,0-22.464,10.059-22.464,22.464c0,12.409, 10.059,22.469, 22.464,22.469c 12.409,0, 22.464-10.059, 22.464-22.469
			C 333.74,108.88, 323.681,98.827, 311.271,98.827z M 572.435,177.456L 55.726,177.456 L 55.726,424.582 l 516.711,0 L 572.435,177.456 z M 362.329,300.744
			c-9.903,2.979-17.651,0.128-22.436-8.292c-5.442-9.581-22.575-78.766-22.575-78.766s 0.056-0.017, 0.445,0.117
			c 16.946,5.641, 34.262,13.078, 50.017,21.574c 0.311,0.162, 0.289,0.156, 0.289,0.156s 7.135,39.336, 7.313,46.906
			C 375.578,290.784, 369.52,298.576, 362.329,300.744z M 217.993,226.695c0,0, 14.616,57.187, 26.643,93.216c 4.924,14.727, 17.039,23.958, 28.765,26.799
			c 40.47,9.82, 56.848-32.834, 56.848-32.834s 29.732,24.37, 56.748,3.735c 12.76-9.748, 18.628-23.953, 17.151-36.074
			c-1.656-13.632-2.996-24.864-2.996-24.864s 0.306,0.095, 0.445,0.206c 16.784,13.549, 27.582,28.027, 27.204,41.47
			c-1.573,56.281-154.95,117.497-201.578,84.185c-37.463-26.76-33.534-113.89-9.514-156.011C 217.744,226.468, 217.993,226.695, 217.993,226.695z
			 M 293.648,320.112c-13.332,3.813-20.741-5.751-22.992-11.043c-1.767-4.168-29.472-104.609-29.472-104.609s 0.256-0.084, 0.384-0.122
			c 11.165-3.479, 27.449-2.79, 45.828,0.928c 0.195,0.039, 0.579,0.117, 0.579,0.117s 20.902,88.321, 21.091,90.694
			C 309.499,301.477, 310.054,315.104, 293.648,320.112z" horiz-adv-x="628"  />
<glyph unicode="&#xe02d;" d="M 313.884,377.354c-36.853,0-66.718-29.871-66.718-66.718
			c0-36.841, 29.866-66.701, 66.718-66.701c 36.841,0, 66.707,29.86, 66.707,66.701C 380.59,347.482, 350.724,377.354, 313.884,377.354z
			 M 313.884,469.72c-87.859,0-159.089-69.891-159.089-156.195C 155.861,209.067, 243.531,86.334, 313.884-22.922
			C 383.208,90.675, 472.95,211.284, 472.95,313.519C 472.95,399.829, 401.731,469.72, 313.884,469.72z M 313.884,202.875
			c-59.533,0-107.771,48.24-107.771,107.76S 254.351,418.402, 313.884,418.402c 59.522,0, 107.755-48.25, 107.755-107.771S 373.405,202.875, 313.884,202.875z
			" horiz-adv-x="628"  />
<glyph unicode="&#xe02e;" d="M 313.884,469.72c-87.859,0-159.089-69.891-159.089-156.195
			C 155.861,209.067, 243.531,86.334, 313.884-22.922C 383.208,90.675, 472.95,211.284, 472.95,313.519C 472.95,399.829, 401.731,469.72, 313.884,469.72z
			 M 313.884,202.875c-59.533,0-107.771,48.24-107.771,107.76S 254.351,418.402, 313.884,418.402c 59.522,0, 107.755-48.25, 107.755-107.771
			S 373.405,202.875, 313.884,202.875z" horiz-adv-x="628"  />
<glyph unicode="&#xe02f;" d="M 312.944,463.495c-96.907,0-181.759-78.544-181.759-175.445
			c0-89.864, 179.703-304.963, 179.703-304.963s 186.178,212.097, 186.178,304.963C 497.059,384.951, 409.84,463.495, 312.944,463.495z M 314.122,298.325
			c-30.377,0-54.997,24.614-54.997,54.997c0,30.366, 24.62,54.991, 54.997,54.991c 30.372,0, 54.997-24.625, 54.997-54.991
			C 369.119,322.94, 344.495,298.325, 314.122,298.325z" horiz-adv-x="628"  />
<glyph unicode="&#xe030;" d="M 314.094,466.685c-134.398,0-243.359-108.95-243.359-243.353
			c0-99.652, 59.92-185.255, 145.663-222.89c-0.677,16.989-0.122,37.396, 4.235,55.881c 4.69,19.763, 31.322,132.602, 31.322,132.602
			s-7.787,15.54-7.787,38.508c0,36.063, 20.907,63, 46.94,63c 22.136,0, 32.823-16.628, 32.823-36.535c0-22.252-14.183-55.543-21.491-86.369
			c-6.085-25.814, 12.955-46.867, 38.419-46.867c 46.111,0, 77.161,59.221, 77.161,129.391c0,53.325-35.918,93.25-101.252,93.25
			c-73.826,0-119.815-55.052-119.815-116.546c0-21.196, 6.253-36.146, 16.039-47.728c 4.512-5.325, 5.141-7.469, 3.501-13.565
			c-1.173-4.474-3.846-15.25-4.962-19.534c-1.612-6.158-6.614-8.363-12.171-6.085c-34.012,13.888-49.851,51.113-49.851,92.972
			c0,69.13, 58.315,152.021, 173.939,152.021c 92.905,0, 154.060-67.229, 154.060-139.405c0-95.456-53.081-166.781-131.307-166.781
			c-26.27,0-50.979,14.205-59.461,30.344c0,0-14.128-56.086-17.117-66.907c-5.158-18.762-15.256-37.519-24.497-52.135
			c 21.897-6.463, 45.010-9.975, 68.969-9.975c 134.392,0, 243.353,108.95, 243.353,243.359C 557.447,357.73, 448.481,466.685, 314.094,466.685z" horiz-adv-x="628"  />
<glyph unicode="&#xe031;" d="M 555.619,136.902L 451.693,234.72c-5.508,5.185-13.91,9.786-22.613,12.894
			l-15.738,70.147c-2.974,13.254-16.512,24.086-30.089,24.086L 244.753,341.847 c-13.577,0-27.115-10.831-30.083-24.086l-15.668-69.83
			c-9.026-3.118-17.817-7.853-23.508-13.209l-103.925-97.818c-9.881-9.309-18.628-27.999-19.446-41.559l-5.28-88.808
			c-0.817-13.549, 9.631-24.636, 23.215-24.636l 487.078,0 c 13.577,0, 24.025,11.082, 23.22,24.636l-5.291,88.808
			C 574.248,108.903, 565.501,127.593, 555.619,136.902z M 281.238,185.396c 0.011,0.845, 0.267,1.651, 0.706,2.39
			c 0.445,0.739, 1.067,1.395, 1.84,1.945c 0.772,0.567, 1.69,1.011, 2.695,1.322c 1.011,0.3, 2.117,0.478, 3.278,0.478l 43.532,0 
			c 1.162,0, 2.262-0.178, 3.278-0.478c 1.017-0.317, 1.928-0.761, 2.695-1.322c 0.772-0.55, 1.4-1.206, 1.846-1.945
			c 0.433-0.739, 0.689-1.539, 0.7-2.39l 0.245-15.016c 0.011-0.867-0.211-1.684-0.628-2.434c-0.423-0.744-1.045-1.417-1.801-1.99
			c-0.761-0.573-1.684-1.033-2.695-1.345c-1.017-0.329-2.133-0.506-3.318-0.506l-44.171,0 c-1.178,0-2.301,0.178-3.318,0.506
			c-1.017,0.317-1.928,0.777-2.695,1.345c-0.761,0.579-1.378,1.251-1.801,1.99c-0.423,0.75-0.644,1.562-0.633,2.434L 281.238,185.396z
			 M 280.332,129.695c 0.017,0.9, 0.279,1.751, 0.728,2.528c 0.451,0.783, 1.1,1.479, 1.895,2.068c 0.8,0.59, 1.735,1.062, 2.779,1.395
			c 1.045,0.34, 2.178,0.506, 3.373,0.506l 44.832,0 c 1.195,0, 2.339-0.167, 3.367-0.506c 1.051-0.334, 1.984-0.805, 2.785-1.395
			s 1.451-1.283, 1.895-2.068c 0.456-0.777, 0.717-1.628, 0.728-2.528l 0.262-15.938c 0.011-0.9-0.217-1.762-0.644-2.556
			c-0.433-0.789-1.067-1.506-1.862-2.117c-0.783-0.606-1.729-1.095-2.774-1.445s-2.201-0.534-3.412-0.534l-45.516,0 
			c-1.211,0-2.362,0.183-3.412,0.534s-1.99,0.834-2.779,1.445s-1.417,1.328-1.857,2.117c-0.428,0.794-0.661,1.656-0.649,2.556
			L 280.332,129.695z M 245.359,53.666c-0.034-0.973-0.317-1.901-0.805-2.74c-0.489-0.839-1.178-1.606-2.023-2.25
			c-0.845-0.638-1.84-1.162-2.94-1.517c-1.1-0.361-2.295-0.561-3.551-0.561l-47.006,0 c-1.234,0-2.406,0.195-3.462,0.561
			c-1.056,0.356-2.006,0.878-2.79,1.517c-0.789,0.644-1.412,1.412-1.824,2.25s-0.606,1.767-0.539,2.74l 1,15.284l 0.105,1.601
			c 0.067,0.956, 0.384,1.862, 0.9,2.69c 0.511,0.822, 1.223,1.562, 2.084,2.201c 0.85,0.623, 1.851,1.122, 2.946,1.484
			c 1.090,0.35, 2.262,0.539, 3.474,0.539l 46.288,0 c 1.229,0, 2.395-0.183, 3.456-0.539c 1.056-0.356, 1.995-0.856, 2.79-1.484
			c 0.789-0.633, 1.417-1.372, 1.846-2.201c 0.428-0.828, 0.649-1.74, 0.617-2.69L 245.359,53.666z M 247.354,113.755
			c-0.028-0.9-0.306-1.762-0.772-2.556c-0.478-0.789-1.145-1.506-1.962-2.117s-1.785-1.095-2.846-1.445
			c-1.067-0.35-2.228-0.534-3.446-0.534l-45.588,0 c-1.189,0-2.323,0.183-3.357,0.534c-1.028,0.35-1.945,0.834-2.707,1.445
			c-0.761,0.606-1.367,1.328-1.767,2.117c-0.395,0.794-0.59,1.656-0.528,2.556l 1.051,15.938c 0.056,0.9, 0.356,1.751, 0.856,2.528
			c 0.5,0.783, 1.189,1.479, 2.017,2.068c 0.834,0.59, 1.801,1.062, 2.857,1.395c 1.056,0.34, 2.201,0.506, 3.367,0.506l 44.91,0 
			c 1.189,0, 2.323-0.167, 3.351-0.506c 1.028-0.334, 1.945-0.805, 2.707-1.395c 0.766-0.59, 1.384-1.283, 1.795-2.068
			c 0.412-0.777, 0.628-1.628, 0.601-2.528L 247.354,113.755z M 249.239,170.381c-0.028-0.867-0.289-1.684-0.75-2.434
			c-0.462-0.744-1.106-1.417-1.895-1.99c-0.794-0.573-1.74-1.033-2.768-1.345c-1.033-0.329-2.161-0.506-3.346-0.506L 196.237,164.105 
			c-1.156,0-2.256,0.178-3.256,0.506c-0.995,0.317-1.889,0.777-2.634,1.345c-0.733,0.579-1.328,1.251-1.717,1.99
			c-0.39,0.75-0.579,1.562-0.522,2.434l 0.989,15.028c 0.061,0.834, 0.35,1.64, 0.834,2.379c 0.483,0.739, 1.15,1.395, 1.95,1.945
			c 0.811,0.567, 1.745,1.011, 2.774,1.322c 1.023,0.3, 2.128,0.478, 3.273,0.478l 43.598,0 c 1.156,0, 2.262-0.178, 3.256-0.478
			c 0.995-0.317, 1.889-0.761, 2.634-1.322c 0.744-0.55, 1.345-1.206, 1.745-1.945c 0.401-0.739, 0.612-1.539, 0.584-2.39L 249.239,170.381z
			 M 343.294,50.921c-0.445-0.839-1.106-1.606-1.917-2.25c-0.811-0.638-1.785-1.162-2.868-1.517c-1.072-0.361-2.262-0.561-3.523-0.561
			l-46.934,0 c-1.251,0-2.445,0.195-3.518,0.561c-1.084,0.356-2.051,0.878-2.868,1.517c-0.811,0.644-1.467,1.412-1.911,2.25
			s-0.689,1.767-0.672,2.74l 0.279,16.884c 0.011,0.956, 0.279,1.862, 0.75,2.69c 0.467,0.822, 1.134,1.562, 1.95,2.201
			c 0.822,0.623, 1.795,1.122, 2.874,1.484c 1.067,0.35, 2.25,0.539, 3.479,0.539l 46.211,0 c 1.234,0, 2.412-0.183, 3.479-0.539
			c 1.078-0.356, 2.045-0.856, 2.874-1.484c 0.817-0.633, 1.489-1.372, 1.956-2.201c 0.467-0.828, 0.739-1.74, 0.75-2.69l 0.279-16.884
			C 343.983,52.694, 343.743,51.767, 343.294,50.921z M 373.882,170.381l-0.5,15.016c-0.022,0.845, 0.183,1.651, 0.59,2.39
			c 0.401,0.739, 0.995,1.395, 1.74,1.945c 0.744,0.567, 1.634,1.011, 2.629,1.322c 1,0.3, 2.095,0.478, 3.256,0.478l 43.537,0 
			c 1.156,0, 2.278-0.178, 3.301-0.478c 1.033-0.317, 1.967-0.761, 2.762-1.322c 0.8-0.55, 1.461-1.206, 1.94-1.945
			c 0.472-0.739, 0.761-1.539, 0.817-2.379l 0.995-15.028c 0.056-0.867-0.128-1.684-0.511-2.434c-0.39-0.744-0.967-1.417-1.707-1.99
			c-0.739-0.573-1.628-1.033-2.64-1.345c-0.995-0.329-2.106-0.506-3.278-0.506l-44.177,0 c-1.184,0-2.311,0.178-3.346,0.506
			c-1.033,0.317-1.967,0.777-2.762,1.345c-0.8,0.579-1.439,1.251-1.895,1.99C 374.183,168.697, 373.916,169.508, 373.882,170.381z
			 M 375.772,113.755l-0.534,15.938c-0.034,0.9, 0.183,1.751, 0.595,2.528c 0.412,0.783, 1.033,1.479, 1.801,2.068
			c 0.761,0.59, 1.684,1.062, 2.701,1.395c 1.033,0.34, 2.161,0.506, 3.357,0.506l 44.826,0 c 1.195,0, 2.351-0.167, 3.406-0.506
			c 1.051-0.334, 2.023-0.805, 2.851-1.395c 0.817-0.59, 1.506-1.283, 1.99-2.068c 0.5-0.777, 0.794-1.628, 0.85-2.528l 1.056-15.938
			c 0.056-0.9-0.134-1.762-0.534-2.556c-0.39-0.789-0.989-1.506-1.745-2.117s-1.673-1.095-2.701-1.445s-2.178-0.534-3.384-0.534l-45.516,0 
			c-1.211,0-2.379,0.183-3.435,0.534c-1.067,0.35-2.040,0.834-2.857,1.445s-1.489,1.328-1.956,2.117
			C 376.078,111.993, 375.8,112.855, 375.772,113.755z M 442.107,50.921c-0.401-0.839-1.023-1.606-1.795-2.25
			c-0.777-0.638-1.729-1.162-2.79-1.517c-1.056-0.361-2.239-0.561-3.495-0.561l-46.934,0 c-1.251,0-2.451,0.195-3.546,0.561
			c-1.106,0.356-2.101,0.878-2.94,1.517c-0.845,0.644-1.534,1.412-2.023,2.25s-0.772,1.767-0.805,2.74l-0.567,16.884
			c-0.034,0.956, 0.189,1.862, 0.612,2.69c 0.428,0.822, 1.056,1.562, 1.851,2.201c 0.789,0.623, 1.74,1.122, 2.796,1.484
			c 1.051,0.35, 2.211,0.539, 3.451,0.539l 46.211,0 c 1.234,0, 2.418-0.183, 3.507-0.539c 1.090-0.356, 2.089-0.856, 2.94-1.484
			c 0.85-0.633, 1.551-1.372, 2.061-2.201c 0.506-0.828, 0.817-1.74, 0.883-2.69l 0.112-1.601l 1-15.284
			C 442.701,52.694, 442.507,51.767, 442.107,50.921z M 605.609,374.37c0,0-68.841,90.12-291.598,90.12
			c-222.757,0-291.598-90.12-291.598-90.12c-3.991-5.225-7.263-14.883-7.263-21.452l0-108.927 c0-6.564, 5.118-10.287, 11.371-8.252l 126.678,32.739
			c 6.264,2.034, 11.377,9.081, 11.377,15.656l0,46.895 c0,6.575, 3.768,15.805, 8.358,20.507c0,0, 29.621,30.31, 141.073,30.31
			c 111.451,0, 141.251-30.333, 141.251-30.333c 4.602-4.69, 8.38-13.917, 8.38-20.491l0-39.964 c0-6.597, 5.041-13.833, 11.215-16.122l 126.667-38.719
			c 6.158-2.29, 11.198,1.217, 11.22,7.775l 0.128,108.927C 612.862,359.486, 609.6,369.139, 605.609,374.37z" horiz-adv-x="628"  />
</font>
</defs>
</svg>
